<svg width="45" height="46" viewBox="0 0 45 46" fill="none" xmlns="http://www.w3.org/2000/svg">
<path d="M6.5918 46H21.2695V29.6484H15.9961V24.2578H21.2695V17.5195C21.2695 13.804 24.2266 10.7812 27.8613 10.7812H34.4531V16.1719H29.1797C27.7257 16.1719 26.543 17.3809 26.543 18.8672V24.2578H34.2152L33.3363 29.6484H26.543V46H38.4082C42.043 46 45 42.9772 45 39.2617V6.73828C45 3.02275 42.043 0 38.4082 0H6.5918C2.95704 0 0 3.02275 0 6.73828V39.2617C0 42.9772 2.95704 46 6.5918 46ZM2.63672 6.73828C2.63672 4.50903 4.41101 2.69531 6.5918 2.69531H38.4082C40.589 2.69531 42.3633 4.50903 42.3633 6.73828V39.2617C42.3633 41.491 40.589 43.3047 38.4082 43.3047H29.1797V32.3438H35.57L37.3278 21.5625H29.1797V18.8672H37.0898V8.08594H27.8613C22.7726 8.08594 18.6328 12.3177 18.6328 17.5195V21.5625H13.3594V32.3438H18.6328V43.3047H6.5918C4.41101 43.3047 2.63672 41.491 2.63672 39.2617V6.73828Z" fill="#0C25F6"/>
</svg>
