<svg width="46" height="46" viewBox="0 0 46 46" fill="none" xmlns="http://www.w3.org/2000/svg">
<path d="M6.73828 46H39.2617C42.9772 46 46 42.9772 46 39.2617V6.73828C46 3.02275 42.9772 0 39.2617 0H6.73828C3.02275 0 0 3.02275 0 6.73828V39.2617C0 42.9772 3.02275 46 6.73828 46ZM2.69531 6.73828C2.69531 4.50903 4.50903 2.69531 6.73828 2.69531H39.2617C41.491 2.69531 43.3047 4.50903 43.3047 6.73828V39.2617C43.3047 41.491 41.491 43.3047 39.2617 43.3047H6.73828C4.50903 43.3047 2.69531 41.491 2.69531 39.2617V6.73828Z" fill="#0C25F6"/>
<path d="M23 35.1289C29.6877 35.1289 35.1289 29.6877 35.1289 23C35.1289 16.3123 29.6877 10.8711 23 10.8711C16.3123 10.8711 10.8711 16.3123 10.8711 23C10.8711 29.6877 16.3123 35.1289 23 35.1289ZM23 13.5664C28.2018 13.5664 32.4336 17.7982 32.4336 23C32.4336 28.2018 28.2018 32.4336 23 32.4336C17.7982 32.4336 13.5664 28.2018 13.5664 23C13.5664 17.7982 17.7982 13.5664 23 13.5664Z" fill="#0C25F6"/>
<path d="M36.4766 13.5664C38.7058 13.5664 40.5195 11.7527 40.5195 9.52344C40.5195 7.29419 38.7058 5.48047 36.4766 5.48047C34.2473 5.48047 32.4336 7.29419 32.4336 9.52344C32.4336 11.7527 34.2473 13.5664 36.4766 13.5664ZM36.4766 8.17578C37.2195 8.17578 37.8242 8.78047 37.8242 9.52344C37.8242 10.2664 37.2195 10.8711 36.4766 10.8711C35.7336 10.8711 35.1289 10.2664 35.1289 9.52344C35.1289 8.78047 35.7336 8.17578 36.4766 8.17578Z" fill="#0C25F6"/>
</svg>
