<svg width="12" height="12" viewBox="0 0 12 12" fill="none" xmlns="http://www.w3.org/2000/svg">
<g clip-path="url(#clip0)">
<path d="M8.30175 5.925L7.06125 2.795L6.01525 4.625L4.96925 2.795L3.72875 5.926H3.37025V6.3965H5.23825V5.926H4.96175L5.23075 5.1485L6.01525 6.4335L6.79975 5.1485L7.06875 5.926H6.79225V6.3965H8.66775V5.926L8.30175 5.925ZM10.9692 4.969C10.9696 4.31637 10.8413 3.67007 10.5917 3.06706C10.3421 2.46404 9.97608 1.91613 9.5146 1.45465C9.05312 0.993174 8.50521 0.627173 7.90219 0.377574C7.29918 0.127975 6.65288 -0.00032797 6.00025 6.29591e-07C3.25825 6.29591e-07 1.03125 2.2265 1.03125 4.969C1.03125 6.344 1.59175 7.584 2.48825 8.4805C2.54439 8.53713 2.6161 8.57579 2.69427 8.59156C2.77244 8.60732 2.85353 8.59949 2.92723 8.56904C3.00094 8.53859 3.06392 8.48692 3.10817 8.42058C3.15242 8.35424 3.17595 8.27624 3.17575 8.1965C3.17592 8.08752 3.13296 7.98291 3.05625 7.9055C2.27964 7.12574 1.84442 6.06952 1.84625 4.969C1.84625 2.675 3.70625 0.807001 6.00025 0.807001C8.29425 0.807001 10.1622 2.675 10.1622 4.969C10.1635 5.5158 10.0565 6.05745 9.84744 6.56271C9.6384 7.06798 9.33144 7.52689 8.94425 7.913L5.43225 11.4245L6.00025 12L9.51975 8.4805C9.98089 8.01963 10.3464 7.47212 10.5951 6.86948C10.8439 6.26684 10.971 5.62096 10.9692 4.969Z" fill="black"/>
</g>
<defs>
<clipPath id="clip0">
<rect width="12" height="12" fill="white"/>
</clipPath>
</defs>
</svg>
