<svg width="46" height="46" viewBox="0 0 46 46" fill="none" xmlns="http://www.w3.org/2000/svg">
<path d="M6.73828 46H39.2617C42.9772 46 46 42.9772 46 39.2617V6.73828C46 3.02275 42.9772 0 39.2617 0H6.73828C3.02275 0 0 3.02275 0 6.73828V39.2617C0 42.9772 3.02275 46 6.73828 46ZM2.69531 6.73828C2.69531 4.50903 4.50903 2.69531 6.73828 2.69531H39.2617C41.491 2.69531 43.3047 4.50903 43.3047 6.73828V39.2617C43.3047 41.491 41.491 43.3047 39.2617 43.3047H6.73828C4.50903 43.3047 2.69531 41.491 2.69531 39.2617V6.73828Z" fill="#0C25F6"/>
<path d="M34.0335 24.206C33.1498 22.4808 30.9987 21.826 28.8929 23.4812C28.8725 23.4973 26.7871 25.0971 23.5044 25.0971C20.2217 25.0971 18.1362 23.4958 18.1158 23.4812C16.0187 21.8246 13.8502 22.4735 12.9723 24.2104C12.9694 24.2148 12.9679 24.2191 12.965 24.225C11.6598 26.8952 13.8152 28.2864 15.5492 29.405C16.621 30.0948 17.9919 30.6154 19.6383 30.9596L14.9644 35.6437C12.1425 38.4598 16.5642 42.9033 19.4152 40.1164L23.519 35.9923C25.0983 37.5745 26.5698 39.0518 27.6315 40.1325C30.446 42.896 34.8969 38.5298 32.091 35.6495C28.7442 32.3056 28.0237 31.5837 27.3908 30.961C30.885 30.2129 35.7456 27.7614 34.0335 24.206ZM25.2471 29.0987C24.4917 28.7356 23.4883 30.1152 24.3137 30.9727L24.3225 30.9814C24.324 30.9829 24.3269 30.9858 24.3283 30.9873C24.3312 30.9902 24.3327 30.9931 24.3356 30.9946C24.7556 31.4131 30.4067 37.0583 30.5321 37.1852C31.3167 37.9916 29.9342 39.3245 29.1744 38.5837C27.8181 37.2041 25.6671 35.0502 24.289 33.6691C23.8631 33.2418 23.1675 33.2389 22.7402 33.6691L17.8723 38.5604C17.1008 39.3143 15.7256 37.9683 16.5073 37.1881L22.6965 30.9873C22.6994 30.9843 22.7023 30.9814 22.7037 30.9785C23.4723 30.2231 22.6965 28.8231 21.7923 29.09C19.6383 28.8377 17.8927 28.3112 16.7304 27.5646C14.4846 26.1135 14.5969 25.8583 14.9221 25.1918C15.8671 23.3821 17.5412 27.2846 23.5015 27.2846C27.5833 27.2846 30.1442 25.2793 30.2448 25.1991C30.9098 24.6771 31.69 24.4335 32.0735 25.1787C32.3987 25.8539 32.5198 26.1062 30.2681 27.5689C28.731 28.5475 26.5581 28.9427 25.2471 29.0987Z" fill="#0C25F6"/>
<path d="M23.4984 20.5787C26.348 20.5787 28.6653 18.257 28.6653 15.4045C28.6653 12.5404 26.348 10.21 23.4984 10.21C20.6503 10.21 18.333 12.5404 18.333 15.4045C18.3316 18.257 20.6488 20.5787 23.4984 20.5787ZM23.4984 12.3975C25.1405 12.3975 26.4778 13.7464 26.4778 15.4045C26.4778 17.051 25.1405 18.3912 23.4984 18.3912C21.8563 18.3912 20.5191 17.051 20.5191 15.4031C20.5191 13.7464 21.8549 12.3975 23.4984 12.3975Z" fill="#0C25F6"/>
<path d="M23.4986 24.7877C28.6742 24.7877 32.8859 20.5775 32.8859 15.4033C32.8845 10.219 28.6742 6 23.4986 6C18.323 6 14.1113 10.219 14.1113 15.4033C14.1113 20.5775 18.3215 24.7877 23.4986 24.7877ZM23.4986 8.1875C27.4682 8.1875 30.6984 11.425 30.6984 15.4033C30.6984 19.3715 27.4697 22.6002 23.4986 22.6002C19.5276 22.6002 16.2988 19.3715 16.2988 15.4033C16.2988 11.425 19.5276 8.1875 23.4986 8.1875Z" fill="#0C25F6"/>
</svg>
