<svg width="46" height="46" viewBox="0 0 46 46" fill="none" xmlns="http://www.w3.org/2000/svg">
<path d="M6.73828 46H39.2617C42.9772 46 46 42.9772 46 39.2617V6.73828C46 3.02275 42.9772 0 39.2617 0H6.73828C3.02275 0 0 3.02275 0 6.73828V39.2617C0 42.9772 3.02275 46 6.73828 46ZM2.69531 6.73828C2.69531 4.50903 4.50903 2.69531 6.73828 2.69531H39.2617C41.491 2.69531 43.3047 4.50903 43.3047 6.73828V39.2617C43.3047 41.491 41.491 43.3047 39.2617 43.3047H6.73828C4.50903 43.3047 2.69531 41.491 2.69531 39.2617V6.73828Z" fill="#0C25F6"/>
<path d="M14.3536 25.482L18.2016 35.1209L23.2119 30.1006L31.7814 36.9257L38 10.1536L7 22.6191L14.3536 25.482ZM11.9358 22.5919L26.712 16.65L14.9614 23.7699L11.9358 22.5919ZM29.3451 17.1775L19.5377 26.1673L18.358 30.6217L16.1762 25.1566L29.3451 17.1775ZM20.2721 30.4772L20.8664 28.2328L21.7834 28.9629L20.2721 30.4772ZM30.6653 33.7164L21.7415 26.6093L35.177 14.2937L30.6653 33.7164Z" fill="#0C25F6"/>
</svg>
