<svg width="46" height="46" viewBox="0 0 46 46" fill="none" xmlns="http://www.w3.org/2000/svg">
<path d="M6.73828 46H39.2617C42.9772 46 46 42.9772 46 39.2617V6.73828C46 3.02275 42.9772 0 39.2617 0H6.73828C3.02275 0 0 3.02275 0 6.73828V39.2617C0 42.9772 3.02275 46 6.73828 46ZM2.69531 6.73828C2.69531 4.50903 4.50903 2.69531 6.73828 2.69531H39.2617C41.491 2.69531 43.3047 4.50903 43.3047 6.73828V39.2617C43.3047 41.491 41.491 43.3047 39.2617 43.3047H6.73828C4.50903 43.3047 2.69531 41.491 2.69531 39.2617V6.73828Z" fill="#0C25F6"/>
<path d="M39 13.4353C36.9871 13.5281 37.031 13.5205 36.8035 13.5395L37.9956 10.135C37.9956 10.135 34.2744 11.5039 33.3311 11.7488C30.8535 9.52195 27.1709 9.42356 24.5381 11.0417C22.3821 12.3672 21.2249 14.6433 21.6108 17.3037C17.4148 16.7214 13.8794 14.7324 11.0881 11.3794L10.2053 10.3191L9.54565 11.5305C8.71191 13.0613 8.43506 14.8115 8.76587 16.4587C8.90161 17.1345 9.13232 17.779 9.4519 18.3825L8.69458 18.0891L8.60474 19.3545C8.51367 20.6399 8.94165 22.1404 9.74976 23.3679C9.97729 23.7136 10.2703 24.0932 10.6416 24.4678L10.2502 24.4077L10.7278 25.8576C11.3555 27.7627 12.6592 29.2365 14.3511 30.0559C12.6614 30.7729 11.2964 31.2304 9.05273 31.9685L7 32.6433L8.896 33.6799C9.6189 34.0752 12.1733 35.3952 14.6973 35.7912C20.3076 36.6711 26.6243 35.9546 30.8767 32.1247C34.4585 28.8989 35.6338 24.3103 35.3896 19.5351C35.3528 18.8122 35.5508 18.1223 35.9473 17.5928C36.7415 16.5324 38.9951 13.4424 39 13.4353ZM34.448 16.4697C33.7895 17.3489 33.4597 18.4717 33.5188 19.6308C33.7651 24.4475 32.4546 28.1828 29.6233 30.7326C26.3159 33.7114 20.9812 34.8806 14.9875 33.9404C13.9021 33.7702 12.7803 33.3891 11.8518 33.0085C13.7329 32.3613 15.1855 31.7844 17.5315 30.674L20.8064 29.124L17.1907 28.8926C15.4587 28.7817 14.0166 27.9424 13.1301 26.5796C13.6008 26.5522 14.0547 26.4761 14.5066 26.3501L17.9551 25.3896L14.4778 24.5381C12.7881 24.1242 11.825 23.1133 11.3145 22.3379C10.9792 21.8283 10.7603 21.3064 10.6289 20.8252C10.9775 20.9187 11.384 20.9853 12.0396 21.0503L15.2581 21.3686L12.708 19.3794C10.8706 17.9463 10.1343 15.7932 10.6741 13.7234C16.4084 19.6711 23.1414 19.2241 23.8191 19.3813C23.6699 17.9324 23.666 17.9289 23.627 17.791C22.759 14.7229 24.6611 13.165 25.519 12.6377C27.311 11.5364 30.1555 11.3703 32.1257 13.1848C32.5513 13.5764 33.1267 13.7304 33.6653 13.5967C34.1487 13.4765 34.5454 13.3493 34.9338 13.2109L34.1252 15.52L35.1575 15.5207C34.9626 15.782 34.729 16.0947 34.448 16.4697Z" fill="#0C25F6"/>
</svg>
