<svg width="46" height="46" viewBox="0 0 46 46" fill="none" xmlns="http://www.w3.org/2000/svg">
<path d="M37.1144 26.5896L37.0949 26.571C36.7876 26.2789 35.846 25.3359 35.5285 24.9237C35.1558 24.4095 35.2418 24.0726 35.5211 23.5677C35.8741 22.9297 36.5813 21.951 37.3297 20.9147C39.727 17.5965 41.2747 15.2994 40.9561 13.6677L40.7844 12.7962L31.9313 12.8001C31.9003 12.8861 31.4383 14.9748 29.4888 18.5316C28.0751 21.1106 27.1479 21.9208 26.8213 22.0638L26.7708 22.048C26.6645 21.9128 26.4788 21.5482 26.4025 20.6082C26.3228 19.6236 26.3934 18.4315 26.4618 17.2787C26.5417 15.9269 26.6107 14.7594 26.4456 13.9241L26.1767 12.5632C25.8518 12.5098 24.6622 12.0374 21.3479 12.0015C18.4786 11.9713 17.6357 12.3978 17.2217 12.7738L15.8526 14.0174L17.5832 14.6167C18.2418 14.8448 18.4604 15.108 18.6398 16.4126C18.7568 17.2629 18.8181 18.6919 18.6917 19.9677C18.5102 21.7969 18.0748 22.1373 18.0523 22.1554C17.9773 22.1291 17.3415 21.8427 16.2376 19.4407C15.4719 17.7749 14.8006 15.8042 14.3101 14.3654C13.7487 12.7176 13.8498 13.0684 13.5649 12.2899L5 12.2896L5.55426 13.7652C7.86496 19.923 9.98505 24.7318 12.8223 28.1857C15.9569 32.0017 19.8527 33.9997 25.1003 33.9997H26.155V32.9142C26.155 31.8993 26.2366 31.1686 26.4115 30.6145C26.5184 30.277 26.6604 29.998 26.8095 29.7054C27.0309 29.2746 27.2473 29.09 27.3654 29.0626C27.4725 29.0374 27.6609 29.1183 27.8697 29.2785C28.469 29.7385 28.9447 30.3429 29.4484 30.9829C30.1752 31.9064 30.9266 32.861 32.1189 33.4861C32.7704 33.8276 33.9646 34 34.6219 34C34.7957 34 40.9923 33.9997 41 33.9997L40.9547 32.8695C40.8871 31.1796 39.5948 29.0665 37.1144 26.5896ZM34.6628 31.8287H34.6458C34.1926 31.8363 33.3277 31.6834 33.0761 31.5516C32.2834 31.1361 31.7295 30.4319 31.0876 29.6166C30.5243 28.9006 29.9417 28.1602 29.1306 27.538C28.4748 27.0346 27.879 26.8873 27.4061 26.8873C27.2171 26.8873 27.0474 26.9108 26.9018 26.9447C26.3528 27.0719 25.5675 27.4784 24.9432 28.6937C24.7672 29.0394 24.5675 29.4309 24.4057 29.9431C24.2362 30.4791 24.1308 31.0747 24.0805 31.7993C20.126 31.568 17.0402 29.9578 14.4331 26.7841C12.0093 23.8331 10.1023 19.7056 8.08276 14.4598C8.22888 14.4598 11.8904 14.4603 12.1065 14.4603C12.1727 14.6517 12.2441 14.8615 12.3199 15.0837C12.8486 16.6359 13.5729 18.7614 14.4263 20.574C15.6482 23.1697 16.7642 24.3273 18.0443 24.3273C18.6835 24.3273 19.2567 24.0485 19.7019 23.5208C20.3366 22.7685 20.7052 21.527 20.8288 19.7248C20.9263 18.3038 20.8357 16.8883 20.7286 16.1084C20.6401 15.4667 20.5141 14.7931 20.2065 14.1895C21.5174 14.1287 23.2727 14.2249 24.3848 14.3891C24.4859 14.9556 24.42 16.0691 24.3563 17.1464C24.2022 19.7489 24.0432 22.4344 25.3816 23.6909C25.6169 23.912 25.8666 24.0304 25.8737 24.0353L26.5549 24.2504C26.8177 24.167 28.3402 24.9619 31.223 19.7839C32.1467 18.1248 33.0066 16.213 33.4697 14.9644C34.5436 14.9621 38.2023 14.9664 38.6322 14.9669C38.0233 16.3461 36.5802 18.3134 35.637 19.6191C34.8147 20.7572 34.1047 21.7401 33.688 22.4932C32.9141 23.8922 33.0443 25.1392 33.8504 26.2391L33.863 26.2561C34.3129 26.8455 35.4239 27.9366 35.6543 28.1566C37.3237 29.8247 38.1282 31.023 38.511 31.8284H34.6628V31.8287Z" fill="#0C25F6"/>
<path d="M6.73828 46H39.2617C42.9772 46 46 42.9772 46 39.2617V6.73828C46 3.02275 42.9772 0 39.2617 0H6.73828C3.02275 0 0 3.02275 0 6.73828V39.2617C0 42.9772 3.02275 46 6.73828 46ZM2.69531 6.73828C2.69531 4.50903 4.50903 2.69531 6.73828 2.69531H39.2617C41.491 2.69531 43.3047 4.50903 43.3047 6.73828V39.2617C43.3047 41.491 41.491 43.3047 39.2617 43.3047H6.73828C4.50903 43.3047 2.69531 41.491 2.69531 39.2617V6.73828Z" fill="#0C25F6"/>
</svg>
