<svg width="12" height="14" viewBox="0 0 12 14" fill="none" xmlns="http://www.w3.org/2000/svg">
<path d="M6 7.6C7.03553 7.6 7.875 6.79411 7.875 5.8C7.875 4.80589 7.03553 4 6 4C4.96447 4 4.125 4.80589 4.125 5.8C4.125 6.79411 4.96447 7.6 6 7.6Z" stroke="#0F0E16" stroke-linecap="round" stroke-linejoin="round"/>
<path d="M6 1C4.67392 1 3.40215 1.50571 2.46447 2.40589C1.52678 3.30606 1 4.52696 1 5.8C1 6.9352 1.25125 7.678 1.9375 8.5L6 13L10.0625 8.5C10.7488 7.678 11 6.9352 11 5.8C11 4.52696 10.4732 3.30606 9.53553 2.40589C8.59785 1.50571 7.32608 1 6 1V1Z" stroke="#0F0E16" stroke-linecap="round" stroke-linejoin="round"/>
</svg>
