<svg width="15" height="15" viewBox="0 0 15 15" fill="none" xmlns="http://www.w3.org/2000/svg">
<path d="M5.625 1.25H11.25C11.9375 1.25 12.5 1.8125 12.5 2.5V12.5C12.5 13.1875 11.9375 13.75 11.25 13.75H5.625C4.9375 13.75 4.375 13.1875 4.375 12.5V11.875C4.375 11.7092 4.44085 11.5503 4.55806 11.4331C4.67527 11.3158 4.83424 11.25 5 11.25C5.16576 11.25 5.32473 11.3158 5.44194 11.4331C5.55915 11.5503 5.625 11.7092 5.625 11.875V12.5H11.25V2.5H5.625V3.125C5.625 3.29076 5.55915 3.44973 5.44194 3.56694C5.32473 3.68415 5.16576 3.75 5 3.75C4.83424 3.75 4.67527 3.68415 4.55806 3.56694C4.44085 3.44973 4.375 3.29076 4.375 3.125V2.5C4.375 1.8125 4.9375 1.25 5.625 1.25Z" fill="#0F0E16"/>
<path d="M6.74687 10.1842C6.99062 10.428 7.38438 10.428 7.62813 10.1842L9.87063 7.94171C9.98779 7.8245 10.0536 7.66556 10.0536 7.49983C10.0536 7.33411 9.98779 7.17516 9.87063 7.05796L7.62813 4.81546C7.50932 4.70808 7.3538 4.65045 7.19371 4.6545C7.03362 4.65854 6.8812 4.72394 6.76796 4.83717C6.65473 4.95041 6.58933 5.10283 6.58529 5.26292C6.58125 5.42301 6.63887 5.57853 6.74625 5.69733L7.91875 6.87483H2.5C2.33424 6.87483 2.17527 6.94068 2.05806 7.05789C1.94085 7.1751 1.875 7.33407 1.875 7.49983C1.875 7.66559 1.94085 7.82457 2.05806 7.94178C2.17527 8.05899 2.33424 8.12483 2.5 8.12483H7.91875L6.74625 9.30233C6.62958 9.41946 6.56413 9.57808 6.56425 9.7434C6.56437 9.90872 6.63004 10.0672 6.74687 10.1842Z" fill="#0F0E16"/>
</svg>
