<svg width="123" height="20" viewBox="0 0 123 20" fill="none" xmlns="http://www.w3.org/2000/svg">
<path fill-rule="evenodd" clip-rule="evenodd" d="M74.2211 0.148515C74.9504 0.148515 75.5986 0.39604 76.1118 0.866337C76.625 1.33663 76.8951 1.90594 76.8951 2.5495C76.8951 3.11881 76.625 3.63861 76.0848 4.05941C75.5446 4.50495 74.9234 4.72772 74.1941 4.72772H70.6019V17.4257C70.6019 18.0941 70.3318 18.6634 69.7916 19.1337C69.2514 19.604 68.6302 19.8267 67.874 19.8267C67.1447 19.8267 66.5235 19.604 65.9833 19.1337C65.4702 18.6634 65.2001 18.0941 65.2001 17.4257V4.72772H61.6078C60.9056 4.72772 60.2844 4.50495 59.7442 4.05941C59.231 3.61386 58.9609 3.11881 58.9609 2.57426C58.9609 1.90594 59.231 1.33663 59.7442 0.841584C60.2574 0.371287 60.8786 0.123762 61.6348 0.123762H74.2211V0.148515ZM89.9135 11.7822C89.9135 10.6436 89.6164 9.60396 88.9952 8.61386C88.401 7.62376 87.5367 6.83168 86.4293 6.23762C85.3219 5.64356 84.0255 5.34653 82.567 5.34653C81.0005 5.34653 79.623 5.66832 78.4346 6.31188C77.2462 6.95545 76.3279 7.82178 75.6796 8.93564C75.0314 10.0495 74.7073 11.2871 74.7073 12.6485C74.7073 14.0099 75.0314 15.2475 75.6796 16.3614C76.3279 17.4752 77.2462 18.3663 78.4076 19.0099C79.569 19.6535 80.9464 20 82.486 20C83.7284 20 84.7818 19.8515 85.646 19.5792C86.5374 19.3069 87.2126 19.0099 87.6717 18.6634C88.347 18.2426 88.6711 17.6733 88.6711 17.0049C88.6711 16.6584 88.5901 16.3614 88.428 16.0891C88.0499 15.4703 87.4827 15.1733 86.7534 15.1733C86.4023 15.1733 85.9702 15.2475 85.511 15.4208C84.7277 15.7426 83.9445 15.9158 83.1882 15.9158C82.513 15.9158 81.8918 15.7673 81.3246 15.495C80.7574 15.198 80.3252 14.7772 80.0551 14.2327H87.5907C88.374 14.2327 88.9412 14.0347 89.3193 13.6634C89.6974 13.2921 89.9135 12.6485 89.9135 11.7822ZM85.1869 11.4109H79.9201C80.1092 10.7673 80.4873 10.297 81.0005 9.97525C81.5136 9.65346 82.1078 9.50495 82.7831 9.50495C83.3773 9.50495 83.9175 9.67822 84.4036 10C84.8628 10.3465 85.1329 10.8168 85.1869 11.4109ZM105.174 14.7525C105.552 15.1733 105.741 15.6436 105.741 16.2376C105.741 16.9554 105.417 17.599 104.769 18.1683C104.093 18.7624 103.283 19.2079 102.338 19.5297C101.392 19.8515 100.393 20 99.3397 20C97.8272 20 96.4227 19.6782 95.1533 19.0594C93.8839 18.4406 92.8845 17.5743 92.1283 16.4604C91.372 15.3465 90.9939 14.1089 90.9939 12.7228C90.9939 11.3119 91.372 10.0495 92.1283 8.91089C92.8845 7.77228 93.8839 6.90594 95.1533 6.28713C96.4227 5.66832 97.8272 5.34653 99.3127 5.34653C100.366 5.34653 101.365 5.5198 102.311 5.84158C103.256 6.16337 104.066 6.60891 104.769 7.20297C105.417 7.77228 105.741 8.41584 105.741 9.13366C105.741 9.70297 105.552 10.198 105.174 10.6188C104.715 11.1386 104.147 11.3861 103.472 11.3861C102.797 11.3861 102.041 11.1386 101.23 10.6188C100.636 10.198 100.015 10 99.3127 10C98.4754 10 97.7732 10.2723 97.233 10.7921C96.6928 11.3366 96.4227 11.9554 96.4227 12.6733C96.4227 13.3911 96.6928 14.0099 97.206 14.5545C97.7192 15.099 98.4214 15.3713 99.2857 15.3713C99.9879 15.3713 100.636 15.1733 101.23 14.7525C102.068 14.2327 102.797 13.9851 103.472 13.9851C104.12 13.9851 104.688 14.2327 105.174 14.7525ZM115.356 5.34653C116.761 5.34653 118.057 5.66832 119.219 6.28713C120.38 6.93069 121.298 7.79703 121.973 8.88614C122.649 9.97525 123 11.1881 123 12.5V17.4257C123 18.0941 122.73 18.6634 122.19 19.1337C121.649 19.604 121.028 19.8267 120.272 19.8267C119.543 19.8267 118.894 19.604 118.381 19.1337C117.868 18.6634 117.598 18.0941 117.598 17.4257V12.3515C117.598 11.5842 117.409 11.0149 117.004 10.5941C116.626 10.1733 116.058 9.97525 115.356 9.97525C114.654 9.97525 114.06 10.1733 113.574 10.5446C113.114 10.9158 112.871 11.4109 112.871 12.0297V17.3762C112.871 18.0198 112.601 18.5891 112.088 19.0842C111.575 19.5545 110.954 19.802 110.197 19.802C109.441 19.802 108.793 19.5545 108.28 19.0842C107.767 18.6139 107.497 18.0446 107.497 17.3762V2.45049C107.497 1.78218 107.767 1.18812 108.307 0.717822C108.847 0.247525 109.468 0 110.224 0C110.927 0 111.548 0.247525 112.088 0.717822C112.601 1.18812 112.871 1.78218 112.871 2.45049V5.89109C113.655 5.5198 114.492 5.34653 115.356 5.34653Z" fill="white"/>
<path fill-rule="evenodd" clip-rule="evenodd" d="M16.3406 15.8168C16.8538 16.4603 17.1238 17.1039 17.1238 17.7227C17.1238 18.3663 16.8538 18.9108 16.2866 19.3316C15.6653 19.7524 15.0171 19.9504 14.3419 19.9504C13.4776 19.9504 12.7754 19.6286 12.2892 18.9603L8.64295 14.3811L8.75099 14.3564C8.53492 14.3811 8.15679 14.3811 7.67062 14.3811H5.34783V17.4009C5.34783 18.0692 5.07773 18.6385 4.56456 19.1336C4.05138 19.6039 3.40316 19.8514 2.6469 19.8514C1.91765 19.8514 1.26943 19.6039 0.756258 19.1336C0.270092 18.6385 0 18.0692 0 17.4009V2.57418C0 1.93062 0.270092 1.36131 0.783268 0.866259C1.29644 0.395962 1.94466 0.148438 2.67391 0.148438H8.4809C9.99341 0.148437 11.3979 0.47022 12.6943 1.11378C13.9908 1.75735 14.9901 2.62368 15.7464 3.73755C16.5026 4.82665 16.8808 6.03953 16.8808 7.32665C16.8808 8.53953 16.6107 9.60388 16.0975 10.5197C15.5843 11.4356 14.8551 12.2029 13.9368 12.797L16.3406 15.8168ZM8.58893 9.87616C9.42622 9.87616 10.1285 9.62863 10.6686 9.15834C11.2088 8.68804 11.4789 8.06923 11.4789 7.3019C11.4789 6.53458 11.2088 5.89101 10.6686 5.42071C10.1285 4.95042 9.42622 4.70289 8.56192 4.70289H5.37484V9.87616H8.58893ZM34.0046 11.7821C34.0046 12.6732 33.8156 13.292 33.4644 13.6633C33.0863 14.0346 32.5191 14.2326 31.7358 14.2326H24.1733C24.4433 14.7771 24.8485 15.1979 25.4427 15.495C26.0099 15.792 26.6311 15.9158 27.3063 15.9158C28.0626 15.9158 28.8459 15.7425 29.6291 15.4207C30.0883 15.2474 30.5204 15.1732 30.8715 15.1732C31.6008 15.1732 32.168 15.4702 32.5461 16.089C32.7082 16.3613 32.7892 16.6583 32.7892 17.0049C32.7892 17.6732 32.4651 18.2425 31.7899 18.6633C31.3307 18.9851 30.6555 19.2821 29.7642 19.5791C28.8729 19.8514 27.8195 19.9999 26.6041 19.9999C25.0646 19.9999 23.7141 19.6781 22.5257 19.0098C21.3643 18.3663 20.446 17.4752 19.7978 16.3613C19.1495 15.2474 18.8254 14.0098 18.8254 12.6484C18.8254 11.2871 19.1495 10.0247 19.7978 8.93556C20.446 7.8217 21.3643 6.95537 22.5527 6.3118C23.7411 5.66824 25.1186 5.34646 26.6851 5.34646C28.1706 5.34646 29.4401 5.64349 30.5474 6.23755C31.6548 6.8316 32.5191 7.62368 33.1133 8.61378C33.7075 9.57913 34.0046 10.6435 34.0046 11.7821ZM29.278 11.4108C29.224 10.8168 28.9809 10.3465 28.4947 10.0247C28.0086 9.67814 27.4684 9.52962 26.8742 9.52962C26.1989 9.52962 25.6047 9.67814 25.0916 9.99992C24.5784 10.3217 24.2273 10.792 24.0112 11.4356H29.278V11.4108ZM57.7727 17.4257C57.7727 18.0692 57.5026 18.6385 56.9895 19.1088C56.4763 19.5791 55.8551 19.8267 55.1528 19.8267C54.3966 19.8267 53.7484 19.5791 53.2082 19.1088C52.668 18.6385 52.3979 18.0692 52.3979 17.4257V11.4356C52.3979 10.99 52.2628 10.6187 51.9657 10.3712C51.6686 10.0989 51.2905 9.97517 50.8314 9.97517C50.3722 9.97517 50.0211 10.0989 49.751 10.3712C49.4809 10.6435 49.3188 10.99 49.3188 11.4356V17.4257C49.3188 18.0692 49.0488 18.6385 48.5356 19.1088C48.0224 19.5791 47.4012 19.8267 46.6719 19.8267C45.9427 19.8267 45.2945 19.5791 44.7543 19.1088C44.2141 18.6385 43.944 18.0692 43.944 17.4257V11.4356C43.944 10.99 43.809 10.6187 43.5119 10.3712C43.2418 10.0989 42.8636 9.97517 42.4315 9.97517C41.9453 9.97517 41.5672 10.0989 41.2701 10.3712C41 10.6435 40.8379 10.99 40.8379 11.4356V17.4257C40.8379 18.0692 40.5949 18.6385 40.0817 19.1088C39.5685 19.5791 38.9743 19.8267 38.2451 19.8267C37.4888 19.8267 36.8406 19.5791 36.2734 19.1088C35.7332 18.6385 35.4631 18.0692 35.4631 17.4257V11.5841C35.4631 10.4455 35.7602 9.40586 36.3814 8.46527C37.0026 7.52467 37.8129 6.75735 38.8663 6.18804C39.8926 5.61873 41.054 5.34646 42.2694 5.34646C44.052 5.34646 45.4835 5.94052 46.5639 7.12863C47.6983 5.94052 49.1298 5.34646 50.8584 5.34646C52.1008 5.34646 53.2622 5.61873 54.2885 6.18804C55.3149 6.73259 56.1522 7.49992 56.7734 8.44052C57.3946 9.38111 57.7187 10.4207 57.7727 11.5841V17.4257Z" fill="url(#paint0_linear)"/>
<defs>
<linearGradient id="paint0_linear" x1="21.7105" y1="9.91537" x2="-4.97807" y2="-4.5017" gradientUnits="userSpaceOnUse">
<stop stop-color="white"/>
<stop offset="1" stop-color="white"/>
</linearGradient>
</defs>
</svg>
