<svg width="123" height="22" viewBox="0 0 123 22" fill="none" xmlns="http://www.w3.org/2000/svg">
<path fill-rule="evenodd" clip-rule="evenodd" d="M74.2211 0.163366C74.9504 0.163366 75.5986 0.435644 76.1118 0.95297C76.625 1.4703 76.8951 2.09653 76.8951 2.80446C76.8951 3.43069 76.625 4.00247 76.0848 4.46535C75.5446 4.95544 74.9234 5.20049 74.1941 5.20049H70.6019V19.1683C70.6019 19.9035 70.3318 20.5297 69.7916 21.047C69.2514 21.5644 68.6302 21.8094 67.874 21.8094C67.1447 21.8094 66.5235 21.5644 65.9833 21.047C65.4702 20.5297 65.2001 19.9035 65.2001 19.1683V5.20049H61.6078C60.9056 5.20049 60.2844 4.95544 59.7442 4.46535C59.231 3.97525 58.9609 3.43069 58.9609 2.83168C58.9609 2.09653 59.231 1.4703 59.7442 0.925743C60.2574 0.408416 60.8786 0.136139 61.6348 0.136139H74.2211V0.163366ZM89.9135 12.9604C89.9135 11.7079 89.6164 10.5644 88.9952 9.47525C88.401 8.38614 87.5367 7.51485 86.4293 6.86139C85.3219 6.20792 84.0255 5.88119 82.567 5.88119C81.0005 5.88119 79.623 6.23515 78.4346 6.94307C77.2462 7.65099 76.3279 8.60396 75.6796 9.82921C75.0314 11.0545 74.7073 12.4158 74.7073 13.9134C74.7073 15.4109 75.0314 16.7723 75.6796 17.9975C76.3279 19.2228 77.2462 20.203 78.4076 20.9109C79.569 21.6188 80.9464 22 82.486 22C83.7284 22 84.7818 21.8366 85.646 21.5371C86.5374 21.2376 87.2126 20.9109 87.6717 20.5297C88.347 20.0668 88.6711 19.4406 88.6711 18.7054C88.6711 18.3243 88.5901 17.9975 88.428 17.698C88.0499 17.0173 87.4827 16.6906 86.7534 16.6906C86.4023 16.6906 85.9702 16.7723 85.511 16.9629C84.7277 17.3168 83.9445 17.5074 83.1882 17.5074C82.513 17.5074 81.8918 17.3441 81.3246 17.0446C80.7574 16.7178 80.3252 16.2549 80.0551 15.6559H87.5907C88.374 15.6559 88.9412 15.4381 89.3193 15.0297C89.6974 14.6213 89.9135 13.9134 89.9135 12.9604ZM85.1869 12.552H79.9201C80.1092 11.8441 80.4873 11.3267 81.0005 10.9728C81.5136 10.6188 82.1078 10.4554 82.7831 10.4554C83.3773 10.4554 83.9175 10.646 84.4036 11C84.8628 11.3812 85.1329 11.8985 85.1869 12.552ZM105.174 16.2277C105.552 16.6906 105.741 17.2079 105.741 17.8614C105.741 18.651 105.417 19.3589 104.769 19.9851C104.093 20.6386 103.283 21.1287 102.338 21.4827C101.392 21.8366 100.393 22 99.3397 22C97.8272 22 96.4227 21.646 95.1533 20.9653C93.8839 20.2847 92.8845 19.3317 92.1283 18.1064C91.372 16.8812 90.9939 15.5198 90.9939 13.995C90.9939 12.4431 91.372 11.0545 92.1283 9.80198C92.8845 8.5495 93.8839 7.59653 95.1533 6.91584C96.4227 6.23515 97.8272 5.88119 99.3127 5.88119C100.366 5.88119 101.365 6.07178 102.311 6.42574C103.256 6.7797 104.066 7.2698 104.769 7.92327C105.417 8.5495 105.741 9.25743 105.741 10.047C105.741 10.6733 105.552 11.2178 105.174 11.6807C104.715 12.2525 104.147 12.5248 103.472 12.5248C102.797 12.5248 102.041 12.2525 101.23 11.6807C100.636 11.2178 100.015 11 99.3127 11C98.4754 11 97.7732 11.2995 97.233 11.8713C96.6928 12.4703 96.4227 13.151 96.4227 13.9406C96.4227 14.7302 96.6928 15.4109 97.206 16.0099C97.7192 16.6089 98.4214 16.9084 99.2857 16.9084C99.9879 16.9084 100.636 16.6906 101.23 16.2277C102.068 15.6559 102.797 15.3837 103.472 15.3837C104.12 15.3837 104.688 15.6559 105.174 16.2277ZM115.356 5.88119C116.761 5.88119 118.057 6.23515 119.219 6.91584C120.38 7.62376 121.298 8.57673 121.973 9.77475C122.649 10.9728 123 12.3069 123 13.75V19.1683C123 19.9035 122.73 20.5297 122.19 21.047C121.649 21.5644 121.028 21.8094 120.272 21.8094C119.543 21.8094 118.894 21.5644 118.381 21.047C117.868 20.5297 117.598 19.9035 117.598 19.1683V13.5866C117.598 12.7426 117.409 12.1163 117.004 11.6535C116.626 11.1906 116.058 10.9728 115.356 10.9728C114.654 10.9728 114.06 11.1906 113.574 11.599C113.114 12.0074 112.871 12.552 112.871 13.2327V19.1139C112.871 19.8218 112.601 20.448 112.088 20.9926C111.575 21.5099 110.954 21.7822 110.197 21.7822C109.441 21.7822 108.793 21.5099 108.28 20.9926C107.767 20.4752 107.497 19.849 107.497 19.1139V2.69554C107.497 1.9604 107.767 1.30693 108.307 0.789604C108.847 0.272277 109.468 0 110.224 0C110.927 0 111.548 0.272277 112.088 0.789604C112.601 1.30693 112.871 1.9604 112.871 2.69554V6.4802C113.655 6.07178 114.492 5.88119 115.356 5.88119Z" fill="#E855D4"/>
<path fill-rule="evenodd" clip-rule="evenodd" d="M16.3406 17.3982C16.8538 18.1062 17.1238 18.8141 17.1238 19.4948C17.1238 20.2027 16.8538 20.8017 16.2866 21.2646C15.6653 21.7274 15.0171 21.9453 14.3419 21.9453C13.4776 21.9453 12.7754 21.5913 12.2892 20.8562L8.64295 15.819L8.75099 15.7918C8.53492 15.819 8.15679 15.819 7.67062 15.819H5.34783V19.1408C5.34783 19.876 5.07773 20.5022 4.56456 21.0467C4.05138 21.5641 3.40316 21.8364 2.6469 21.8364C1.91765 21.8364 1.26943 21.5641 0.756258 21.0467C0.270092 20.5022 0 19.876 0 19.1408V2.8314C0 2.12348 0.270092 1.49724 0.783268 0.95269C1.29644 0.435363 1.94466 0.163086 2.67391 0.163086H8.4809C9.99341 0.163086 11.3979 0.517046 12.6943 1.22497C13.9908 1.93289 14.9901 2.88586 15.7464 4.11111C16.5026 5.30912 16.8808 6.64328 16.8808 8.05912C16.8808 9.39328 16.6107 10.5641 16.0975 11.5715C15.5843 12.5789 14.8551 13.423 13.9368 14.0765L16.3406 17.3982ZM8.58893 10.8636C9.42622 10.8636 10.1285 10.5913 10.6686 10.074C11.2088 9.55665 11.4789 8.87596 11.4789 8.0319C11.4789 7.18784 11.2088 6.47992 10.6686 5.96259C10.1285 5.44526 9.42622 5.17299 8.56192 5.17299H5.37484V10.8636H8.58893ZM34.0046 12.9601C34.0046 13.9403 33.8156 14.621 33.4644 15.0294C33.0863 15.4378 32.5191 15.6557 31.7358 15.6557H24.1733C24.4433 16.2547 24.8485 16.7175 25.4427 17.0443C26.0099 17.371 26.6311 17.5071 27.3063 17.5071C28.0626 17.5071 28.8459 17.3165 29.6291 16.9626C30.0883 16.772 30.5204 16.6903 30.8715 16.6903C31.6008 16.6903 32.168 17.017 32.5461 17.6977C32.7082 17.9972 32.7892 18.324 32.7892 18.7052C32.7892 19.4403 32.4651 20.0666 31.7899 20.5294C31.3307 20.8834 30.6555 21.2101 29.7642 21.5368C28.8729 21.8364 27.8195 21.9997 26.6041 21.9997C25.0646 21.9997 23.7141 21.6458 22.5257 20.9106C21.3643 20.2027 20.446 19.2225 19.7978 17.9972C19.1495 16.772 18.8254 15.4106 18.8254 13.9131C18.8254 12.4156 19.1495 11.0269 19.7978 9.82893C20.446 8.60368 21.3643 7.65071 22.5527 6.94279C23.7411 6.23487 25.1186 5.88091 26.6851 5.88091C28.1706 5.88091 29.4401 6.20764 30.5474 6.86111C31.6548 7.51457 32.5191 8.38586 33.1133 9.47497C33.7075 10.5368 34.0046 11.7076 34.0046 12.9601ZM29.278 12.5517C29.224 11.8982 28.9809 11.3809 28.4947 11.0269C28.0086 10.6458 27.4684 10.4824 26.8742 10.4824C26.1989 10.4824 25.6047 10.6458 25.0916 10.9997C24.5784 11.3537 24.2273 11.871 24.0112 12.5789H29.278V12.5517ZM57.7727 19.168C57.7727 19.876 57.5026 20.5022 56.9895 21.0195C56.4763 21.5368 55.8551 21.8091 55.1528 21.8091C54.3966 21.8091 53.7484 21.5368 53.2082 21.0195C52.668 20.5022 52.3979 19.876 52.3979 19.168V12.5789C52.3979 12.0888 52.2628 11.6804 51.9657 11.4081C51.6686 11.1086 51.2905 10.9725 50.8314 10.9725C50.3722 10.9725 50.0211 11.1086 49.751 11.4081C49.4809 11.7076 49.3188 12.0888 49.3188 12.5789V19.168C49.3188 19.876 49.0488 20.5022 48.5356 21.0195C48.0224 21.5368 47.4012 21.8091 46.6719 21.8091C45.9427 21.8091 45.2945 21.5368 44.7543 21.0195C44.2141 20.5022 43.944 19.876 43.944 19.168V12.5789C43.944 12.0888 43.809 11.6804 43.5119 11.4081C43.2418 11.1086 42.8636 10.9725 42.4315 10.9725C41.9453 10.9725 41.5672 11.1086 41.2701 11.4081C41 11.7076 40.8379 12.0888 40.8379 12.5789V19.168C40.8379 19.876 40.5949 20.5022 40.0817 21.0195C39.5685 21.5368 38.9743 21.8091 38.2451 21.8091C37.4888 21.8091 36.8406 21.5368 36.2734 21.0195C35.7332 20.5022 35.4631 19.876 35.4631 19.168V12.7423C35.4631 11.4898 35.7602 10.3463 36.3814 9.3116C37.0026 8.27695 37.8129 7.43289 38.8663 6.80665C39.8926 6.18041 41.054 5.88091 42.2694 5.88091C44.052 5.88091 45.4835 6.53437 46.5639 7.8413C47.6983 6.53437 49.1298 5.88091 50.8584 5.88091C52.1008 5.88091 53.2622 6.18041 54.2885 6.80665C55.3149 7.40566 56.1522 8.24972 56.7734 9.28437C57.3946 10.319 57.7187 11.4626 57.7727 12.7423V19.168Z" fill="url(#paint0_linear)"/>
<defs>
<linearGradient id="paint0_linear" x1="21.7105" y1="10.9067" x2="-6.06708" y2="-2.73451" gradientUnits="userSpaceOnUse">
<stop stop-color="#0C25F6"/>
<stop offset="1" stop-color="white"/>
</linearGradient>
</defs>
</svg>
