<svg width="13" height="12" viewBox="0 0 13 12" fill="none" xmlns="http://www.w3.org/2000/svg">
<path d="M2.36319 11.48C2.30003 11.8352 2.65471 12.1128 2.96729 11.9544L6.52221 10.1497L10.0763 11.9544C10.3889 12.1128 10.7436 11.8352 10.6804 11.4808L10.0083 7.69713L12.8603 5.01253C13.1276 4.76135 12.9899 4.30219 12.632 4.25259L8.6657 3.69583L6.89714 0.234497C6.86345 0.164334 6.8103 0.105053 6.74386 0.0635441C6.67742 0.0220347 6.60042 0 6.52181 0C6.44319 0 6.3662 0.0220347 6.29976 0.0635441C6.23332 0.105053 6.18017 0.164334 6.14647 0.234497L4.37792 3.69663L0.411625 4.25339C0.0545133 4.30299 -0.0839588 4.76215 0.182458 5.01333L3.03531 7.69793L2.36319 11.4816V11.48ZM6.33515 9.26661L3.35031 10.7817L3.9123 7.61634C3.92546 7.54347 3.92031 7.46853 3.8973 7.39809C3.87428 7.32765 3.83411 7.26388 3.7803 7.21237L1.42709 4.99653L4.70831 4.53577C4.77625 4.52563 4.8407 4.49938 4.89612 4.45926C4.95155 4.41913 4.9963 4.36634 5.02655 4.30539L6.52059 1.37921L8.01625 4.30539C8.0465 4.36634 8.09126 4.41913 8.14668 4.45926C8.20211 4.49938 8.26655 4.52563 8.3345 4.53577L11.6157 4.99573L9.2625 7.21157C9.20857 7.26316 9.16832 7.32707 9.1453 7.39766C9.12228 7.46825 9.1172 7.54335 9.13051 7.61634L9.69249 10.7817L6.70765 9.26661C6.64993 9.23721 6.58594 9.22188 6.521 9.22188C6.45606 9.22188 6.39206 9.23721 6.33434 9.26661H6.33515Z" fill="#E855D4"/>
</svg>
