<svg width="14" height="12" viewBox="0 0 14 12" fill="none" xmlns="http://www.w3.org/2000/svg">
<path d="M5.11679 3.69511L6.88527 0.233594C6.91924 0.163959 6.97231 0.105144 7.03845 0.0638461C7.10459 0.0225482 7.18113 0.000426614 7.25937 0C7.40756 0 7.55574 0.077598 7.6359 0.233594L9.40438 3.69511L13.3705 4.25189C13.4694 4.26725 13.5598 4.31582 13.6267 4.38941C13.6935 4.46301 13.7326 4.55713 13.7373 4.65588C13.743 4.72163 13.7335 4.78779 13.7097 4.84943C13.6859 4.91107 13.6482 4.96659 13.5997 5.01187L10.7469 7.6966L11.419 11.4805C11.4822 11.8349 11.1275 12.1125 10.815 11.9541L7.25937 10.1493L3.70541 11.9541C3.66823 11.9732 3.62839 11.9866 3.58719 11.9941C3.31025 12.0421 3.04628 11.7909 3.10134 11.4805L3.77343 7.6966L0.921511 5.01187C0.877174 4.97043 0.841932 4.92043 0.817974 4.86497C0.794015 4.80951 0.78185 4.74978 0.782235 4.68948C0.782278 4.60423 0.806092 4.52064 0.851064 4.44789C0.882966 4.39514 0.92645 4.35015 0.978305 4.31623C1.03016 4.28231 1.08906 4.26032 1.15067 4.25189L5.11679 3.69511ZM7.25937 9.22137C7.32474 9.2211 7.38919 9.23647 7.44723 9.26616L10.4319 10.7813L9.86998 7.61581C9.85672 7.543 9.86174 7.4681 9.88461 7.39766C9.90749 7.32722 9.9475 7.26341 10.0012 7.21182L12.3551 4.99587L9.07401 4.53508C9.00607 4.52495 8.94162 4.49869 8.8862 4.45857C8.83078 4.41844 8.78603 4.36564 8.75578 4.30469L7.26018 1.37836L7.25937 1.38076V9.22056V9.22137Z" fill="#E855D4"/>
</svg>
