<svg width="75" height="87" viewBox="0 0 75 87" fill="none" xmlns="http://www.w3.org/2000/svg">
<path d="M37.5 47.7499C45.0594 47.7499 51.1875 42.0416 51.1875 35C51.1875 27.9584 45.0594 22.25 37.5 22.25C29.9406 22.25 23.8125 27.9584 23.8125 35C23.8125 42.0416 29.9406 47.7499 37.5 47.7499Z" stroke="#E855D4" stroke-width="2" stroke-linecap="round" stroke-linejoin="round"/>
<path d="M37.5 1C27.8196 1 18.5357 4.58213 11.6906 10.9584C4.84553 17.3346 1 25.9826 1 35C1 43.041 2.83412 48.3025 7.84375 54.125L37.5 86L67.1562 54.125C72.1659 48.3025 74 43.041 74 35C74 25.9826 70.1545 17.3346 63.3094 10.9584C56.4643 4.58213 47.1804 1 37.5 1V1Z" stroke="#E855D4" stroke-width="2" stroke-linecap="round" stroke-linejoin="round"/>
</svg>
