<svg width="12" height="15" viewBox="0 0 12 15" fill="none" xmlns="http://www.w3.org/2000/svg">
<path d="M11.25 14.6221H0.75C0.551087 14.6221 0.360322 14.5427 0.21967 14.4015C0.0790178 14.2602 0 14.0686 0 13.8688V6.6053C0.0115506 6.42069 0.0896721 6.24664 0.21975 6.11569L5.46975 0.842987C5.5394 0.772953 5.62212 0.717394 5.71317 0.679488C5.80422 0.641581 5.90181 0.62207 6.00037 0.62207C6.09893 0.62207 6.19653 0.641581 6.28758 0.679488C6.37863 0.717394 6.46134 0.772953 6.531 0.842987L11.781 6.11569C11.8507 6.18553 11.906 6.26855 11.9435 6.35996C11.9811 6.45136 12.0003 6.54934 12 6.64823V13.8688C12 14.0686 11.921 14.2602 11.7803 14.4015C11.6397 14.5427 11.4489 14.6221 11.25 14.6221ZM6 2.44062L1.5 6.96008V13.1156H10.5V6.96008L6 2.44062ZM4.875 12.0302L2.8455 9.9964L3.9 8.9283L4.875 9.90149L8.1 6.66857L9.159 7.73516L4.875 12.0294V12.0302Z" fill="#0C25F6"/>
</svg>
