<svg width="12" height="15" viewBox="0 0 12 15" fill="none" xmlns="http://www.w3.org/2000/svg">
<path d="M2.48276 14.6221H4.13793V12.1515H9.10345V10.5044H4.13793V8.85736H7.86207C10.1437 8.85736 12 7.01019 12 4.73972C12 2.46925 10.1437 0.62207 7.86207 0.62207H3.31034C3.09086 0.62207 2.88036 0.708835 2.72515 0.863277C2.56995 1.01772 2.48276 1.22719 2.48276 1.4456V7.21031H0V8.85736H2.48276V10.5044H0V12.1515H2.48276V14.6221ZM4.13793 2.26913H7.86207C9.2309 2.26913 10.3448 3.3776 10.3448 4.73972C10.3448 6.10184 9.2309 7.21031 7.86207 7.21031H4.13793V2.26913Z" fill="#3E57EC"/>
</svg>
