<svg width="16" height="17" viewBox="0 0 16 17" fill="none" xmlns="http://www.w3.org/2000/svg">
<path d="M11.7429 10.9642C12.7112 9.64291 13.1449 8.00471 12.9572 6.37737C12.7695 4.75003 11.9743 3.25356 10.7307 2.18735C9.48701 1.12114 7.88665 0.563821 6.24973 0.626894C4.61282 0.689968 3.06008 1.36878 1.90217 2.52753C0.744249 3.68627 0.0665484 5.23949 0.00464653 6.87645C-0.0572553 8.51341 0.501207 10.1134 1.56831 11.3563C2.6354 12.5991 4.13244 13.3933 5.75992 13.5798C7.38739 13.7663 9.02528 13.3315 10.3459 12.3622H10.3449C10.3749 12.4022 10.4069 12.4402 10.4429 12.4772L14.2929 16.3272C14.4804 16.5149 14.7348 16.6203 15 16.6204C15.2653 16.6205 15.5198 16.5152 15.7074 16.3277C15.895 16.1402 16.0005 15.8858 16.0006 15.6206C16.0007 15.3553 15.8954 15.1009 15.7079 14.9132L11.8579 11.0632C11.8221 11.027 11.7837 10.9936 11.7429 10.9632V10.9642ZM12.0009 7.12022C12.0009 7.84249 11.8586 8.55769 11.5822 9.22498C11.3058 9.89227 10.9007 10.4986 10.39 11.0093C9.87926 11.52 9.27295 11.9252 8.60566 12.2016C7.93837 12.478 7.22317 12.6202 6.5009 12.6202C5.77863 12.6202 5.06343 12.478 4.39614 12.2016C3.72885 11.9252 3.12253 11.52 2.61181 11.0093C2.10109 10.4986 1.69596 9.89227 1.41956 9.22498C1.14316 8.55769 1.0009 7.84249 1.0009 7.12022C1.0009 5.66153 1.58036 4.26258 2.61181 3.23113C3.64326 2.19968 5.04221 1.62022 6.5009 1.62022C7.95959 1.62022 9.35853 2.19968 10.39 3.23113C11.4214 4.26258 12.0009 5.66153 12.0009 7.12022Z" fill="#3E57EC"/>
</svg>
