<svg width="130" height="125" viewBox="0 0 130 125" fill="none" xmlns="http://www.w3.org/2000/svg">
<g clip-path="url(#clip0)">
<path fill-rule="evenodd" clip-rule="evenodd" d="M29.4223 52.2658L28.9577 51.4846L28.8803 51.4064C28.648 50.8596 28.8029 51.3283 28.8803 50.8596C29.0351 49.6096 28.5706 50.9377 29.19 49.2971C28.1834 48.8283 28.106 48.2814 26.9446 48.2033C26.3252 48.8283 26.1703 48.9846 26.0929 50.2346C24.5444 51.2502 25.5509 51.1721 24.1572 52.8127C24.1572 52.1877 24.7767 50.5471 24.9315 49.2971C25.0864 47.8908 24.3121 45.6252 23.383 44.6096C22.7636 43.9846 23.0733 44.0627 22.1441 43.7502C21.0602 43.4377 20.4407 42.9689 19.2793 42.5783L19.0471 41.8752C19.7439 41.7189 20.0536 41.9533 20.5956 42.1877C22.841 43.1252 22.9958 42.5783 24.7767 43.5939C28.8029 45.8596 28.5706 44.6877 30.5063 44.7658C30.4288 45.9377 29.9643 46.4064 30.7385 47.2658C31.5902 48.2814 31.2031 47.1877 32.6742 48.3596C31.4354 48.2814 30.5837 48.6721 29.9643 49.5314C29.19 50.6252 29.2674 50.7033 29.4223 52.2658ZM3.63907 13.5158L2.63252 13.6721C2.55509 14.1408 2.63252 13.9846 2.32281 14.2971C2.32281 14.2971 1.85825 14.6096 1.78082 14.6877C1.23883 14.8439 0.541989 14.7658 0 14.7658V54.6877C2.94223 54.7658 10.1429 55.6252 11.9238 57.1096C12.156 57.3439 12.156 57.2658 12.4658 57.5002C13.5497 58.1252 13.7046 57.8127 14.7886 59.2971C15.95 60.8596 18.4276 61.0158 19.1245 62.8908L19.3568 62.8127C20.2859 62.1877 20.673 62.4221 21.4473 61.7971C22.2216 61.2502 21.2924 61.5627 22.0667 61.3283L22.3764 62.1877C23.5378 62.2658 26.6349 62.5002 27.7189 63.0471C28.8029 63.5939 29.19 63.2814 30.4288 63.2814C31.2031 63.2814 30.8934 63.4377 31.6677 63.3596C32.2871 63.2814 32.2871 63.1252 32.9065 63.2033C32.9839 64.1408 32.1322 65.7814 33.1388 65.8596C33.5259 65.8596 33.1388 65.7814 33.3711 65.8596C33.7582 65.9377 34.5325 66.9533 35.4616 67.5002L38.8684 69.1408C39.9524 69.3752 41.4235 69.6096 42.1977 70.3908C43.0494 71.3283 42.5074 70.3127 43.8237 71.3283C44.8303 72.1096 45.0625 71.4064 45.682 71.3283L45.8368 72.1096L46.5336 72.5002C48.5468 72.5783 49.0887 73.0471 49.4759 72.5002C49.6307 73.5158 50.3276 73.3596 52.1084 74.7658C52.573 75.1564 52.7278 75.4689 53.3472 75.9377C54.0441 76.4064 54.1989 76.7971 54.7409 76.9533C55.2829 77.1096 55.1281 76.8752 55.67 77.1096C56.6766 77.6564 55.4378 78.0471 58.4574 77.7346C58.8446 77.6564 58.38 77.6564 58.9994 77.8908C59.3865 78.0471 59.6188 78.0471 60.0834 78.0471C60.9351 78.0471 61.2448 77.8127 62.1739 77.8908C62.7933 77.1096 63.7225 77.4221 64.4967 77.5783C65.9678 77.9689 65.5807 77.1096 66.1227 78.3596C66.5873 78.3596 67.6712 78.1252 67.9809 77.9689C68.5229 77.6564 68.4455 77.3439 68.9101 76.6408L71.1554 74.3752C70.6909 73.2814 68.8326 72.7346 67.2067 71.9533C64.4967 70.7033 63.7225 71.2502 63.4902 69.4533L70.6909 72.6564C71.8523 72.8908 73.5557 71.7189 74.1751 71.0158C74.9494 70.0783 74.5622 68.7502 75.6462 67.5002C76.4205 67.5002 78.0465 67.9689 79.7499 67.6564C79.2853 66.9533 79.053 67.0314 78.3562 66.5627C77.3496 65.9377 77.5819 65.7033 77.3496 65.2346C76.5753 65.4689 76.885 65.3908 76.0334 65.2346C75.4139 64.0627 74.4074 62.5002 74.8719 60.9377C75.9559 57.5002 76.4979 58.7502 77.6593 57.9689C76.4205 56.8752 75.2591 57.3439 76.1108 55.3127C74.7945 54.6877 75.0268 55.2346 74.0202 54.1408C73.246 53.2033 72.8588 54.2189 71.62 53.9064C70.536 53.5939 72.0846 53.5939 69.0649 53.2033C63.645 52.5783 65.3484 52.1096 61.6319 51.0939C59.6962 50.5471 57.6057 51.0158 56.754 50.6252C56.2895 50.3908 56.5217 50.7033 56.2895 50.2346C55.67 50.1564 54.5086 49.2189 53.8118 48.8283L51.5664 47.8127C51.5664 46.5627 51.6438 46.2502 51.489 44.8439L51.1018 42.1877C51.8761 41.6408 51.9535 41.6408 52.031 40.4689C52.1084 39.6096 52.1858 39.2971 52.031 38.3596C51.7987 37.3439 51.1793 36.9533 50.1727 36.4064C49.3985 36.0158 49.863 36.4846 49.5533 35.9377C49.9404 35.0783 50.0953 35.7033 51.1018 35.0002C50.7921 34.2971 50.4824 34.6096 50.0179 33.9846C49.7856 33.5939 50.0179 33.7502 49.4759 33.2814C48.4693 32.4221 49.2436 33.0471 48.7016 32.4221C48.3145 32.0314 48.3145 32.2658 47.9273 31.7971C48.3919 30.3908 51.7987 32.1877 50.3276 25.1564C50.0953 23.9846 49.7082 22.3439 49.321 21.2502C48.4693 19.2189 47.3853 20.2346 44.598 17.5783C43.9786 17.0314 44.8303 17.3439 43.7463 17.1096C42.6623 16.7971 42.5849 17.1877 41.7332 17.0314C41.4235 16.9533 40.5718 16.5627 40.1072 16.2502C36.4681 14.2189 37.0101 13.7502 31.8999 12.3439C31.2031 12.1096 30.7385 11.8752 30.1191 11.7189C28.5706 11.3283 20.9053 10.0783 20.131 9.60956C19.0471 8.90644 17.6534 8.67206 16.1823 8.59394C14.1691 8.51581 14.7111 8.75019 14.0143 8.98456C13.24 9.21894 12.7755 8.90644 11.8463 9.21894C9.60095 9.92206 12.2335 11.0939 7.20072 11.7971C5.26504 12.6564 5.26504 12.5002 3.63907 13.5158Z" fill="#CAE3F7"/>
<mask id="path-2-inside-1" fill="white">
<path fill-rule="evenodd" clip-rule="evenodd" d="M2.63271 13.6719L3.63926 13.5156C5.26523 12.4219 5.26523 12.6562 7.35576 12.3438C12.3885 11.7188 9.756 10.4688 12.0014 9.76562C12.9305 9.45312 13.4725 9.76562 14.1693 9.53125C14.8662 9.29688 14.3242 9.14062 16.3373 9.14062C17.8084 9.21875 19.1247 9.45312 20.2861 10.1562C20.9829 10.625 28.7256 11.875 30.2742 12.2656C30.971 12.4219 31.3581 12.7344 32.055 12.8906C37.1652 14.2969 36.6232 14.8438 40.2623 16.7969C40.7268 17.0312 41.5785 17.5 41.8882 17.5781C42.7399 17.7344 42.8173 17.2656 43.9013 17.6562C44.9853 17.9688 44.1336 17.5781 44.753 18.125C47.5404 20.7812 48.6244 19.7656 49.4761 21.7969C49.8632 22.8125 50.2503 24.5313 50.4826 25.7031C51.9537 32.7344 48.5469 30.9375 48.0824 32.3438C48.4695 32.8125 48.5469 32.5 48.8567 32.9688C49.3986 33.5938 48.6244 33.0469 49.6309 33.8281C50.1729 34.2188 49.8632 34.0625 50.1729 34.5312C50.6375 35.2344 50.9472 34.9219 51.2569 35.5469C50.2503 36.25 50.0955 35.625 49.7084 36.4844C50.0181 37.1094 49.5535 36.5625 50.3278 36.9531C51.3343 37.5 52.0312 37.8906 52.186 38.9062C52.3409 39.8438 52.2635 40.0781 52.186 41.0156C52.1086 42.1094 52.0312 42.1875 51.2569 42.7344L51.644 45.3906C51.7989 46.7969 51.7215 47.0312 51.7215 48.3594L53.9668 49.375C54.6637 49.6875 55.7477 50.625 56.4445 50.7812C56.6768 51.25 56.4445 51.0156 56.9091 51.1719C57.6833 51.4844 59.8513 51.0938 61.787 51.6406C65.5035 52.6562 63.8001 53.125 69.22 53.75C72.2396 54.0625 70.6911 54.1406 71.7751 54.4531C73.0139 54.7656 73.401 53.8281 74.1753 54.6875C75.1044 55.7812 74.9496 55.3125 76.2658 55.8594C75.4141 57.8906 76.5755 57.4219 77.8144 58.5156C76.653 59.2969 76.111 58.0469 75.027 61.4844C74.5624 63.0469 75.4916 64.6094 76.1884 65.7812C77.0401 65.9375 76.7304 66.0156 77.5047 65.7812C77.7369 66.25 77.5047 66.4062 78.5112 67.1094C79.2081 67.5781 79.4403 67.4219 79.9049 68.2031C78.2789 68.5156 76.5755 68.0469 75.8013 68.0469C74.7173 69.2969 75.027 70.625 74.3302 71.5625C73.7107 72.2656 72.0073 73.4375 70.8459 73.2031L63.6452 70C63.8775 71.7969 64.6518 71.25 67.3617 72.5C69.0651 73.2812 70.8459 73.8281 71.3105 74.9219L69.0651 77.1875C68.6006 77.8125 68.7554 78.2031 68.136 78.5156C67.8263 78.6719 66.7423 78.9062 66.2777 78.9062C65.7358 77.7344 66.1229 78.5156 64.6518 78.125C63.8775 77.9688 62.871 77.5781 62.329 78.4375C61.3998 78.3594 61.0901 78.5938 60.2384 78.5938C59.7739 78.5938 59.5416 78.5938 59.1545 78.4375C58.535 78.2031 58.9996 78.2031 58.6125 78.2812C55.6702 78.6719 56.9091 78.2031 55.8251 77.6562C55.3605 77.4219 55.438 77.6562 54.896 77.5C54.354 77.3438 54.1991 76.9531 53.5023 76.4844C52.8829 76.0156 52.728 75.7031 52.2635 75.3125C50.4826 73.9062 49.7858 74.0625 49.6309 73.0469C47.6178 72.7344 46.2241 73.9062 45.837 71.875C45.2176 71.9531 44.9853 72.6562 43.9788 71.875C42.5851 70.8594 43.2045 71.7969 42.3528 70.9375C41.5785 70.1562 40.1074 69.8438 39.0234 69.6875L35.6166 68.0469C34.6101 67.4219 33.9132 66.4844 33.5261 66.4062C33.2164 66.3281 33.681 66.4062 33.2938 66.4062C32.2873 66.3281 33.139 64.6875 33.0615 63.75C32.4421 63.6719 32.4421 63.8281 31.8227 63.9063C31.1259 63.9844 31.3581 63.8281 30.5839 63.8281C29.345 63.8281 28.9579 64.1406 27.8739 63.5938C26.7899 63.0469 23.6929 62.8125 22.5315 62.7344L22.2218 61.875C21.4475 62.1094 22.3766 61.7969 21.6023 62.3438C20.8281 62.8906 20.3635 62.7344 19.5118 63.3594L19.2795 63.4375C19.5118 64.0625 19.8989 63.8281 20.5958 64.2188L20.1312 66.25C22.454 67.5781 27.0222 68.2031 26.8674 71.0938C26.1705 71.6406 25.8608 71.5625 25.7834 72.7344C25.7834 73.3594 25.7834 74.6094 26.0157 75.1562C26.3254 75.7031 27.1771 76.0156 27.7965 76.0156C29.0353 76.0156 28.5708 75.3906 29.4225 76.4844C30.3516 76.5625 30.429 76.5625 31.2033 76.4062C32.2873 76.1719 33.2938 77.9688 34.1455 78.5156C34.9972 78.2031 35.3843 77.5 36.236 77.1094C36.8555 76.7969 36.236 77.1875 37.32 77.2656C38.404 77.3438 38.404 77.2656 39.4106 77.9688C39.8751 78.2812 39.7977 78.2031 40.03 78.75C40.4171 79.7656 40.572 80.3906 41.5785 79.4531C41.8882 80.1562 41.114 81.4844 42.0431 82.0312C43.2819 82.7344 43.5142 81.1719 43.7465 80.3906C44.5207 80.7031 43.2045 80.8594 44.6756 80.9375C45.7596 81.0156 44.9079 80.5469 45.7596 80.8594C46.6887 81.1719 45.6047 81.0156 46.7661 81.4844C47.463 81.7969 47.3855 81.4844 47.8501 82.0312C48.2372 82.8125 47.3081 83.5156 47.3081 84.6875C49.7858 85.5469 49.5535 84.5312 51.7215 84.375C52.4183 84.2969 52.5732 84.5312 53.1926 84.4531C54.0443 84.375 54.2766 83.9844 55.1282 84.2969C56.0574 84.6094 55.2057 84.5312 56.2897 84.6875C56.5994 84.2188 56.9865 83.9844 57.7608 84.0625C57.5285 85.1562 56.9865 86.3281 57.6833 87.2656C58.3028 88.125 59.2319 88.3594 60.5481 88.4375C61.0127 88.5156 62.1741 88.5938 62.4064 88.5938C64.2646 88.5938 63.1032 87.8906 65.0389 89.1406C66.8197 90.2344 65.0389 90.3906 63.8001 90.7031L63.7227 91.875C62.4838 92.1094 62.871 92.5 62.7935 93.75C62.7935 94.8438 62.4064 94.9219 61.3998 95.0781C61.245 96.0156 61.3998 96.0156 60.7804 96.4844C58.8447 97.8906 57.2188 97.8125 57.2962 98.9062L58.9996 99.1406C58.9996 100 59.2319 99.8438 59.4642 100.547C59.6964 101.406 59.7739 101.25 60.0836 101.797C59.4642 102.344 58.7673 102.969 58.3028 103.906C57.9156 104.766 57.9931 104.531 57.6059 105.234C57.2188 105.938 57.2962 105.859 57.2188 106.719C56.2122 106.719 56.7542 106.562 56.0574 107.031C56.1348 108.203 56.3671 107.969 57.2188 108.125C57.9156 108.203 57.2962 108.203 58.0705 108.906C58.9996 108.75 59.4642 108.359 60.4707 108.438C61.0127 109.453 61.8644 111.406 62.871 111.797C64.1872 112.344 63.2581 112.734 64.4969 113.125C65.5035 113.516 66.1229 112.891 66.4326 112.344C66.8197 111.406 66.2777 110.859 66.2003 109.844C64.8841 109.688 64.7292 109.141 64.4969 108.047C63.3355 103.516 64.8066 104.141 65.2712 102.656C65.5035 101.719 65.1938 100.547 65.426 99.4531L67.7489 99.6094C68.136 98.8281 68.678 98.2031 68.9877 97.2656C68.678 96.7188 68.678 96.9531 68.4457 96.4844C68.7554 95.9375 70.6911 92.0312 68.9103 92.4219C68.2908 92.5781 67.9037 93.75 67.3617 93.9062C67.7489 93.2031 68.2134 92.6562 68.5231 91.9531C69.6845 92.3438 69.2974 91.7188 70.304 92.3438C70.6137 92.5 70.8459 92.6562 71.0008 92.8906C71.3105 93.2812 71.0008 92.9688 71.2331 93.3594C72.0848 95 73.6333 92.1094 76.0336 92.9688C77.2724 93.4375 79.4403 94.2969 80.6017 94.4531C80.6017 94.375 80.6792 94.2969 80.6792 94.2969L81.0663 93.3594C81.6857 93.3594 81.918 93.5938 81.918 94.1406C81.2986 94.8438 81.4534 94.375 80.9889 95.2344L80.2146 96.7188C79.9049 97.1094 79.5178 97.0312 78.9758 97.6562C78.5886 98.125 78.8209 97.8906 78.4338 98.2031C77.9692 98.6719 78.3564 97.9688 77.8918 98.75C78.6661 99.6094 82.1503 102.109 83.002 102.656C81.6857 106.797 80.3695 106.25 79.9823 107.969C80.292 108.438 79.9823 108.125 80.5243 108.516L80.292 108.594C80.2146 108.594 80.0598 108.672 80.0598 108.672C79.6726 108.828 79.9049 108.672 79.5952 108.984C79.1306 109.453 78.8984 110.234 78.5886 110.781C77.8144 112.266 75.3367 112.656 76.0336 114.688C75.1819 114.844 75.3367 115.078 74.9496 115.859C74.7173 116.328 74.485 116.641 74.3302 117.344L75.6464 118.438C76.2658 118.125 75.9561 118.437 76.4207 117.891L76.8853 118.281C76.4981 118.672 76.4207 118.828 76.111 119.375C76.3433 120.078 76.3433 119.453 76.5755 120.156C76.653 120.547 76.653 120.859 76.7304 121.172C76.9627 121.953 77.3498 121.641 77.9692 122.187C77.6595 123.125 76.4981 123.281 76.2658 124.219L78.1241 125.469C79.2855 124.766 82.3051 121.484 83.544 120.391C85.7119 121.406 84.628 121.328 87.4153 121.172C88.3445 122.422 89.5059 122.344 90.5124 122.812C91.4415 123.203 90.8221 123.594 92.2932 122.812C93.2224 122.266 92.6804 123.281 93.6869 123.281C94.5386 123.281 95.4677 121.094 95.7 120.391C96.5517 120.313 96.1646 120.234 96.6292 120.703C97.2486 121.328 97.7131 122.422 98.1777 123.125C99.2617 124.766 98.7197 124.766 100.113 125.234C102.281 125.938 101.12 124.531 103.675 123.984C103.907 122.266 103.675 120.547 103.52 118.906C102.901 118.516 103.365 118.672 102.514 118.438L102.436 117.109C102.359 117.109 102.281 117.031 102.281 117.031C102.204 117.031 102.204 116.953 102.126 116.953L101.352 116.719C102.049 116.172 102.049 116.172 102.514 115.391L105.533 114.922C106.385 114.219 105.611 113.672 106.075 112.812C106.85 111.328 107.856 112.344 110.179 112.344L111.418 107.656C112.192 107.578 112.889 107.734 113.663 107.578C114.437 107.422 114.437 107.344 115.521 107.266L115.676 106.953C115.676 106.875 115.754 106.875 115.754 106.797L115.908 106.328C117.147 106.328 117.689 108.047 118.076 109.063C119.857 109.219 120.786 108.906 122.412 108.672C122.49 106.875 121.716 107.812 122.722 106.172C123.109 105.547 123.419 104.609 124.193 104.375C125.509 103.984 128.839 104.922 129.845 105.312C129.845 104.141 129.613 104.062 129.148 103.359C129.536 103.125 129.536 103.203 130.155 102.813L130 102.031C128.452 101.719 129.69 102.422 128.065 101.484C128.142 100.312 128.297 99.5312 127.135 99.0625C127.445 98.3594 127.677 98.3594 127.832 97.2656C126.284 96.5625 126.826 96.7188 124.735 96.7969C123.574 96.875 123.341 96.25 122.103 96.0156C120.786 95.7812 120.864 95.3125 119.857 94.8438C119.006 94.4531 117.999 94.6875 117.225 94.1406L113.973 90.4688C112.966 88.8281 111.573 88.6719 110.489 87.3438C111.263 83.75 108.553 86.1719 107.314 85.7031C106.308 85.3125 105.533 83.9062 103.675 83.125L103.985 81.3281C105.301 81.1719 105.224 80.7812 106.54 80.5469C106.385 78.9062 105.301 77.1094 104.759 75.4688C104.604 75 104.449 74.6094 104.372 74.2188C103.985 73.0469 104.682 71.5625 104.836 70.2344C105.224 66.4062 106.23 62.8125 106.23 58.9844C106.617 58.6719 108.398 58.125 109.017 58.125C109.327 58.9062 109.405 58.75 109.714 59.375L111.263 58.9844C111.573 58.8281 111.573 58.8281 111.727 58.75C111.418 58.3594 110.876 58.125 110.721 57.8125C110.411 57.3438 110.566 56.7969 109.947 56.4844L108.475 55.9375C108.785 55.1562 109.25 55.2344 108.553 54.1406C107.701 54.2188 107.392 55 106.695 55.2344C105.998 55.4687 106.462 55.3906 106.23 55.1562C106.075 54.9219 105.533 53.0469 105.611 52.2656C105.611 52.2656 105.688 51.875 105.688 51.7187C105.688 50.9375 104.836 50.8594 104.14 50.625L104.294 47.9688C103.288 47.8906 103.752 48.2031 103.21 48.0469C102.746 47.8906 103.133 48.0469 102.823 47.7344C101.817 46.7969 102.049 47.2656 102.204 45.9375C101.739 45.5469 101.43 45.3906 101.197 44.6875C100.423 44.6875 99.8811 44.5312 99.1068 44.1406C97.4034 43.3594 97.868 43.2031 97.0937 42.4219C96.5517 41.7969 95.3903 41.6406 94.9258 41.0938L94.4612 40.3125C94.3063 39.8438 94.3063 39.7656 94.1515 39.2969C92.2932 30.8594 92.2158 34.7656 88.9639 33.9844C88.5767 33.9062 87.0282 32.9688 86.4862 32.7344L85.7119 33.5156C84.0085 32.4219 83.4665 30.7031 83.3117 29.6094C83.1568 28.9844 83.3117 29.0625 83.1568 28.4375C83.002 27.9688 82.6149 27.1875 82.3051 26.875C80.7566 26.7969 78.8984 28.9062 77.3498 28.5156C76.4981 28.2812 76.653 28.2031 75.4916 28.125C75.9561 27.6562 75.9561 27.8906 76.1884 27.1094C72.1622 25.9375 73.8656 26.4062 71.6976 25C70.3814 24.1406 65.426 21.9531 64.3421 21.7969C61.0901 25.3125 61.7095 22.7344 58.7673 22.1875C58.7673 19.6094 59.1545 21.1719 58.0705 19.2188C57.7608 18.6719 57.7608 18.0469 57.3736 17.7344C56.9091 17.4219 56.5219 17.9688 56.0574 17.9688C55.8251 17.5781 55.6702 17.1094 55.5154 16.7969C55.0508 15.9375 55.2057 16.4062 54.4314 16.0156C53.6571 15.625 53.812 15.4688 53.27 15.2344C52.6506 15.0781 52.5732 15.3125 51.7989 14.8438C50.6375 14.0625 50.5601 14.0625 49.1664 13.75C47.8501 13.4375 48.0824 12.8906 46.921 12.5781C46.7661 11.3281 47.0758 11.0938 45.6821 11.1719C43.8239 11.25 44.9853 11.1719 43.669 10.8594C42.4302 10.4688 42.9722 11.0938 42.0431 10C41.5011 9.29688 41.5011 9.29688 40.4171 9.45312C39.6428 8.28125 39.0234 8.51562 38.7911 8.04688L38.1717 6.25C37.6297 4.92188 36.0038 5.625 35.2295 3.82812C34.9198 3.125 34.6101 2.73438 33.9907 2.26562C32.8293 0.78125 33.2938 0.78125 31.6679 1.01562C30.429 1.17188 30.7387 0.0781249 28.8031 1.01562C28.8805 1.64062 29.1128 1.48438 29.1128 2.34375C29.1128 2.42188 29.1128 3.04688 29.4999 3.51562C28.7256 3.67188 28.4159 1.40625 26.7125 1.25C25.0091 1.09375 25.9383 1.40625 24.4671 0.703125C23.9251 0.46875 23.2283 0.15625 22.6863 0C21.5249 0.78125 22.2218 0.78125 21.6023 1.64062C20.9055 1.32812 21.2926 1.25 20.5184 0.9375C20.1312 1.17188 20.3635 1.01562 20.1312 1.17188L19.357 1.64062C18.4278 2.03125 19.2795 1.64062 18.273 1.48438C17.0341 3.28125 17.6536 1.79688 16.4147 3.90625C14.7113 3.90625 13.4725 2.1875 11.7691 3.51562C11.4594 3.28125 11.2271 3.125 10.9174 2.96875L10.6077 1.17188C9.29144 1.40625 10.4528 1.48438 9.29144 2.1875C8.43974 2.65625 8.74945 2.26562 8.28488 3.20312C7.66547 2.89062 8.20746 3.20312 7.66547 2.8125C7.43319 2.65625 7.51061 2.65625 7.27833 2.5C6.11693 3.75 4.87809 4.76562 3.63926 5.9375C2.86499 6.64062 0.309899 8.51562 0.464753 9.53125C1.1616 10 1.70359 9.84375 2.40043 10.0781C3.1747 10.3906 2.323 10.625 3.63926 11.0938C3.25213 11.4062 3.09727 11.3281 2.55528 11.5625C2.09072 11.7188 1.85844 11.875 1.54873 12.1875C1.85844 13.2812 2.01329 12.8906 2.63271 13.6719ZM104.372 60.0781C111.34 50.7812 97.1711 69.5312 104.372 60.0781V60.0781ZM53.9668 33.3594L53.812 33.0469C53.812 32.9688 53.7346 32.9688 53.7346 32.8906C55.2831 32.1875 54.0443 30 54.1217 28.5937C55.438 28.6719 55.5928 29.2188 56.1348 29.6094C57.7608 30.8594 56.4445 30.7031 57.4511 31.1719C57.9156 31.4063 58.1479 31.1719 58.9222 31.0938C59.2319 31.7969 59.077 31.4844 59.6964 31.7969L60.6256 30.9375C60.6256 30.9375 60.9353 30.5469 60.9353 30.4688C61.245 30.1562 60.9353 30.3125 61.3224 30.1562C61.7095 30.7812 61.4773 30.1562 61.0901 31.6406C60.4707 34.1406 59.3867 32.6562 58.2253 34.5312C57.6059 35.4688 57.8382 35.3906 57.3736 35.7031C55.9025 36.5625 57.4511 35.1562 55.8251 37.1094C55.0508 38.125 54.8185 38.2031 54.0443 38.2812C53.812 36.0156 54.6637 35.3906 54.0443 33.5156C54.0443 33.5156 53.9668 33.4375 53.9668 33.3594Z"/>
</mask>
<path fill-rule="evenodd" clip-rule="evenodd" d="M2.63271 13.6719L3.63926 13.5156C5.26523 12.4219 5.26523 12.6562 7.35576 12.3438C12.3885 11.7188 9.756 10.4688 12.0014 9.76562C12.9305 9.45312 13.4725 9.76562 14.1693 9.53125C14.8662 9.29688 14.3242 9.14062 16.3373 9.14062C17.8084 9.21875 19.1247 9.45312 20.2861 10.1562C20.9829 10.625 28.7256 11.875 30.2742 12.2656C30.971 12.4219 31.3581 12.7344 32.055 12.8906C37.1652 14.2969 36.6232 14.8438 40.2623 16.7969C40.7268 17.0312 41.5785 17.5 41.8882 17.5781C42.7399 17.7344 42.8173 17.2656 43.9013 17.6562C44.9853 17.9688 44.1336 17.5781 44.753 18.125C47.5404 20.7812 48.6244 19.7656 49.4761 21.7969C49.8632 22.8125 50.2503 24.5313 50.4826 25.7031C51.9537 32.7344 48.5469 30.9375 48.0824 32.3438C48.4695 32.8125 48.5469 32.5 48.8567 32.9688C49.3986 33.5938 48.6244 33.0469 49.6309 33.8281C50.1729 34.2188 49.8632 34.0625 50.1729 34.5312C50.6375 35.2344 50.9472 34.9219 51.2569 35.5469C50.2503 36.25 50.0955 35.625 49.7084 36.4844C50.0181 37.1094 49.5535 36.5625 50.3278 36.9531C51.3343 37.5 52.0312 37.8906 52.186 38.9062C52.3409 39.8438 52.2635 40.0781 52.186 41.0156C52.1086 42.1094 52.0312 42.1875 51.2569 42.7344L51.644 45.3906C51.7989 46.7969 51.7215 47.0312 51.7215 48.3594L53.9668 49.375C54.6637 49.6875 55.7477 50.625 56.4445 50.7812C56.6768 51.25 56.4445 51.0156 56.9091 51.1719C57.6833 51.4844 59.8513 51.0938 61.787 51.6406C65.5035 52.6562 63.8001 53.125 69.22 53.75C72.2396 54.0625 70.6911 54.1406 71.7751 54.4531C73.0139 54.7656 73.401 53.8281 74.1753 54.6875C75.1044 55.7812 74.9496 55.3125 76.2658 55.8594C75.4141 57.8906 76.5755 57.4219 77.8144 58.5156C76.653 59.2969 76.111 58.0469 75.027 61.4844C74.5624 63.0469 75.4916 64.6094 76.1884 65.7812C77.0401 65.9375 76.7304 66.0156 77.5047 65.7812C77.7369 66.25 77.5047 66.4062 78.5112 67.1094C79.2081 67.5781 79.4403 67.4219 79.9049 68.2031C78.2789 68.5156 76.5755 68.0469 75.8013 68.0469C74.7173 69.2969 75.027 70.625 74.3302 71.5625C73.7107 72.2656 72.0073 73.4375 70.8459 73.2031L63.6452 70C63.8775 71.7969 64.6518 71.25 67.3617 72.5C69.0651 73.2812 70.8459 73.8281 71.3105 74.9219L69.0651 77.1875C68.6006 77.8125 68.7554 78.2031 68.136 78.5156C67.8263 78.6719 66.7423 78.9062 66.2777 78.9062C65.7358 77.7344 66.1229 78.5156 64.6518 78.125C63.8775 77.9688 62.871 77.5781 62.329 78.4375C61.3998 78.3594 61.0901 78.5938 60.2384 78.5938C59.7739 78.5938 59.5416 78.5938 59.1545 78.4375C58.535 78.2031 58.9996 78.2031 58.6125 78.2812C55.6702 78.6719 56.9091 78.2031 55.8251 77.6562C55.3605 77.4219 55.438 77.6562 54.896 77.5C54.354 77.3438 54.1991 76.9531 53.5023 76.4844C52.8829 76.0156 52.728 75.7031 52.2635 75.3125C50.4826 73.9062 49.7858 74.0625 49.6309 73.0469C47.6178 72.7344 46.2241 73.9062 45.837 71.875C45.2176 71.9531 44.9853 72.6562 43.9788 71.875C42.5851 70.8594 43.2045 71.7969 42.3528 70.9375C41.5785 70.1562 40.1074 69.8438 39.0234 69.6875L35.6166 68.0469C34.6101 67.4219 33.9132 66.4844 33.5261 66.4062C33.2164 66.3281 33.681 66.4062 33.2938 66.4062C32.2873 66.3281 33.139 64.6875 33.0615 63.75C32.4421 63.6719 32.4421 63.8281 31.8227 63.9063C31.1259 63.9844 31.3581 63.8281 30.5839 63.8281C29.345 63.8281 28.9579 64.1406 27.8739 63.5938C26.7899 63.0469 23.6929 62.8125 22.5315 62.7344L22.2218 61.875C21.4475 62.1094 22.3766 61.7969 21.6023 62.3438C20.8281 62.8906 20.3635 62.7344 19.5118 63.3594L19.2795 63.4375C19.5118 64.0625 19.8989 63.8281 20.5958 64.2188L20.1312 66.25C22.454 67.5781 27.0222 68.2031 26.8674 71.0938C26.1705 71.6406 25.8608 71.5625 25.7834 72.7344C25.7834 73.3594 25.7834 74.6094 26.0157 75.1562C26.3254 75.7031 27.1771 76.0156 27.7965 76.0156C29.0353 76.0156 28.5708 75.3906 29.4225 76.4844C30.3516 76.5625 30.429 76.5625 31.2033 76.4062C32.2873 76.1719 33.2938 77.9688 34.1455 78.5156C34.9972 78.2031 35.3843 77.5 36.236 77.1094C36.8555 76.7969 36.236 77.1875 37.32 77.2656C38.404 77.3438 38.404 77.2656 39.4106 77.9688C39.8751 78.2812 39.7977 78.2031 40.03 78.75C40.4171 79.7656 40.572 80.3906 41.5785 79.4531C41.8882 80.1562 41.114 81.4844 42.0431 82.0312C43.2819 82.7344 43.5142 81.1719 43.7465 80.3906C44.5207 80.7031 43.2045 80.8594 44.6756 80.9375C45.7596 81.0156 44.9079 80.5469 45.7596 80.8594C46.6887 81.1719 45.6047 81.0156 46.7661 81.4844C47.463 81.7969 47.3855 81.4844 47.8501 82.0312C48.2372 82.8125 47.3081 83.5156 47.3081 84.6875C49.7858 85.5469 49.5535 84.5312 51.7215 84.375C52.4183 84.2969 52.5732 84.5312 53.1926 84.4531C54.0443 84.375 54.2766 83.9844 55.1282 84.2969C56.0574 84.6094 55.2057 84.5312 56.2897 84.6875C56.5994 84.2188 56.9865 83.9844 57.7608 84.0625C57.5285 85.1562 56.9865 86.3281 57.6833 87.2656C58.3028 88.125 59.2319 88.3594 60.5481 88.4375C61.0127 88.5156 62.1741 88.5938 62.4064 88.5938C64.2646 88.5938 63.1032 87.8906 65.0389 89.1406C66.8197 90.2344 65.0389 90.3906 63.8001 90.7031L63.7227 91.875C62.4838 92.1094 62.871 92.5 62.7935 93.75C62.7935 94.8438 62.4064 94.9219 61.3998 95.0781C61.245 96.0156 61.3998 96.0156 60.7804 96.4844C58.8447 97.8906 57.2188 97.8125 57.2962 98.9062L58.9996 99.1406C58.9996 100 59.2319 99.8438 59.4642 100.547C59.6964 101.406 59.7739 101.25 60.0836 101.797C59.4642 102.344 58.7673 102.969 58.3028 103.906C57.9156 104.766 57.9931 104.531 57.6059 105.234C57.2188 105.938 57.2962 105.859 57.2188 106.719C56.2122 106.719 56.7542 106.562 56.0574 107.031C56.1348 108.203 56.3671 107.969 57.2188 108.125C57.9156 108.203 57.2962 108.203 58.0705 108.906C58.9996 108.75 59.4642 108.359 60.4707 108.438C61.0127 109.453 61.8644 111.406 62.871 111.797C64.1872 112.344 63.2581 112.734 64.4969 113.125C65.5035 113.516 66.1229 112.891 66.4326 112.344C66.8197 111.406 66.2777 110.859 66.2003 109.844C64.8841 109.688 64.7292 109.141 64.4969 108.047C63.3355 103.516 64.8066 104.141 65.2712 102.656C65.5035 101.719 65.1938 100.547 65.426 99.4531L67.7489 99.6094C68.136 98.8281 68.678 98.2031 68.9877 97.2656C68.678 96.7188 68.678 96.9531 68.4457 96.4844C68.7554 95.9375 70.6911 92.0312 68.9103 92.4219C68.2908 92.5781 67.9037 93.75 67.3617 93.9062C67.7489 93.2031 68.2134 92.6562 68.5231 91.9531C69.6845 92.3438 69.2974 91.7188 70.304 92.3438C70.6137 92.5 70.8459 92.6562 71.0008 92.8906C71.3105 93.2812 71.0008 92.9688 71.2331 93.3594C72.0848 95 73.6333 92.1094 76.0336 92.9688C77.2724 93.4375 79.4403 94.2969 80.6017 94.4531C80.6017 94.375 80.6792 94.2969 80.6792 94.2969L81.0663 93.3594C81.6857 93.3594 81.918 93.5938 81.918 94.1406C81.2986 94.8438 81.4534 94.375 80.9889 95.2344L80.2146 96.7188C79.9049 97.1094 79.5178 97.0312 78.9758 97.6562C78.5886 98.125 78.8209 97.8906 78.4338 98.2031C77.9692 98.6719 78.3564 97.9688 77.8918 98.75C78.6661 99.6094 82.1503 102.109 83.002 102.656C81.6857 106.797 80.3695 106.25 79.9823 107.969C80.292 108.438 79.9823 108.125 80.5243 108.516L80.292 108.594C80.2146 108.594 80.0598 108.672 80.0598 108.672C79.6726 108.828 79.9049 108.672 79.5952 108.984C79.1306 109.453 78.8984 110.234 78.5886 110.781C77.8144 112.266 75.3367 112.656 76.0336 114.688C75.1819 114.844 75.3367 115.078 74.9496 115.859C74.7173 116.328 74.485 116.641 74.3302 117.344L75.6464 118.438C76.2658 118.125 75.9561 118.437 76.4207 117.891L76.8853 118.281C76.4981 118.672 76.4207 118.828 76.111 119.375C76.3433 120.078 76.3433 119.453 76.5755 120.156C76.653 120.547 76.653 120.859 76.7304 121.172C76.9627 121.953 77.3498 121.641 77.9692 122.187C77.6595 123.125 76.4981 123.281 76.2658 124.219L78.1241 125.469C79.2855 124.766 82.3051 121.484 83.544 120.391C85.7119 121.406 84.628 121.328 87.4153 121.172C88.3445 122.422 89.5059 122.344 90.5124 122.812C91.4415 123.203 90.8221 123.594 92.2932 122.812C93.2224 122.266 92.6804 123.281 93.6869 123.281C94.5386 123.281 95.4677 121.094 95.7 120.391C96.5517 120.313 96.1646 120.234 96.6292 120.703C97.2486 121.328 97.7131 122.422 98.1777 123.125C99.2617 124.766 98.7197 124.766 100.113 125.234C102.281 125.938 101.12 124.531 103.675 123.984C103.907 122.266 103.675 120.547 103.52 118.906C102.901 118.516 103.365 118.672 102.514 118.438L102.436 117.109C102.359 117.109 102.281 117.031 102.281 117.031C102.204 117.031 102.204 116.953 102.126 116.953L101.352 116.719C102.049 116.172 102.049 116.172 102.514 115.391L105.533 114.922C106.385 114.219 105.611 113.672 106.075 112.812C106.85 111.328 107.856 112.344 110.179 112.344L111.418 107.656C112.192 107.578 112.889 107.734 113.663 107.578C114.437 107.422 114.437 107.344 115.521 107.266L115.676 106.953C115.676 106.875 115.754 106.875 115.754 106.797L115.908 106.328C117.147 106.328 117.689 108.047 118.076 109.063C119.857 109.219 120.786 108.906 122.412 108.672C122.49 106.875 121.716 107.812 122.722 106.172C123.109 105.547 123.419 104.609 124.193 104.375C125.509 103.984 128.839 104.922 129.845 105.312C129.845 104.141 129.613 104.062 129.148 103.359C129.536 103.125 129.536 103.203 130.155 102.813L130 102.031C128.452 101.719 129.69 102.422 128.065 101.484C128.142 100.312 128.297 99.5312 127.135 99.0625C127.445 98.3594 127.677 98.3594 127.832 97.2656C126.284 96.5625 126.826 96.7188 124.735 96.7969C123.574 96.875 123.341 96.25 122.103 96.0156C120.786 95.7812 120.864 95.3125 119.857 94.8438C119.006 94.4531 117.999 94.6875 117.225 94.1406L113.973 90.4688C112.966 88.8281 111.573 88.6719 110.489 87.3438C111.263 83.75 108.553 86.1719 107.314 85.7031C106.308 85.3125 105.533 83.9062 103.675 83.125L103.985 81.3281C105.301 81.1719 105.224 80.7812 106.54 80.5469C106.385 78.9062 105.301 77.1094 104.759 75.4688C104.604 75 104.449 74.6094 104.372 74.2188C103.985 73.0469 104.682 71.5625 104.836 70.2344C105.224 66.4062 106.23 62.8125 106.23 58.9844C106.617 58.6719 108.398 58.125 109.017 58.125C109.327 58.9062 109.405 58.75 109.714 59.375L111.263 58.9844C111.573 58.8281 111.573 58.8281 111.727 58.75C111.418 58.3594 110.876 58.125 110.721 57.8125C110.411 57.3438 110.566 56.7969 109.947 56.4844L108.475 55.9375C108.785 55.1562 109.25 55.2344 108.553 54.1406C107.701 54.2188 107.392 55 106.695 55.2344C105.998 55.4687 106.462 55.3906 106.23 55.1562C106.075 54.9219 105.533 53.0469 105.611 52.2656C105.611 52.2656 105.688 51.875 105.688 51.7187C105.688 50.9375 104.836 50.8594 104.14 50.625L104.294 47.9688C103.288 47.8906 103.752 48.2031 103.21 48.0469C102.746 47.8906 103.133 48.0469 102.823 47.7344C101.817 46.7969 102.049 47.2656 102.204 45.9375C101.739 45.5469 101.43 45.3906 101.197 44.6875C100.423 44.6875 99.8811 44.5312 99.1068 44.1406C97.4034 43.3594 97.868 43.2031 97.0937 42.4219C96.5517 41.7969 95.3903 41.6406 94.9258 41.0938L94.4612 40.3125C94.3063 39.8438 94.3063 39.7656 94.1515 39.2969C92.2932 30.8594 92.2158 34.7656 88.9639 33.9844C88.5767 33.9062 87.0282 32.9688 86.4862 32.7344L85.7119 33.5156C84.0085 32.4219 83.4665 30.7031 83.3117 29.6094C83.1568 28.9844 83.3117 29.0625 83.1568 28.4375C83.002 27.9688 82.6149 27.1875 82.3051 26.875C80.7566 26.7969 78.8984 28.9062 77.3498 28.5156C76.4981 28.2812 76.653 28.2031 75.4916 28.125C75.9561 27.6562 75.9561 27.8906 76.1884 27.1094C72.1622 25.9375 73.8656 26.4062 71.6976 25C70.3814 24.1406 65.426 21.9531 64.3421 21.7969C61.0901 25.3125 61.7095 22.7344 58.7673 22.1875C58.7673 19.6094 59.1545 21.1719 58.0705 19.2188C57.7608 18.6719 57.7608 18.0469 57.3736 17.7344C56.9091 17.4219 56.5219 17.9688 56.0574 17.9688C55.8251 17.5781 55.6702 17.1094 55.5154 16.7969C55.0508 15.9375 55.2057 16.4062 54.4314 16.0156C53.6571 15.625 53.812 15.4688 53.27 15.2344C52.6506 15.0781 52.5732 15.3125 51.7989 14.8438C50.6375 14.0625 50.5601 14.0625 49.1664 13.75C47.8501 13.4375 48.0824 12.8906 46.921 12.5781C46.7661 11.3281 47.0758 11.0938 45.6821 11.1719C43.8239 11.25 44.9853 11.1719 43.669 10.8594C42.4302 10.4688 42.9722 11.0938 42.0431 10C41.5011 9.29688 41.5011 9.29688 40.4171 9.45312C39.6428 8.28125 39.0234 8.51562 38.7911 8.04688L38.1717 6.25C37.6297 4.92188 36.0038 5.625 35.2295 3.82812C34.9198 3.125 34.6101 2.73438 33.9907 2.26562C32.8293 0.78125 33.2938 0.78125 31.6679 1.01562C30.429 1.17188 30.7387 0.0781249 28.8031 1.01562C28.8805 1.64062 29.1128 1.48438 29.1128 2.34375C29.1128 2.42188 29.1128 3.04688 29.4999 3.51562C28.7256 3.67188 28.4159 1.40625 26.7125 1.25C25.0091 1.09375 25.9383 1.40625 24.4671 0.703125C23.9251 0.46875 23.2283 0.15625 22.6863 0C21.5249 0.78125 22.2218 0.78125 21.6023 1.64062C20.9055 1.32812 21.2926 1.25 20.5184 0.9375C20.1312 1.17188 20.3635 1.01562 20.1312 1.17188L19.357 1.64062C18.4278 2.03125 19.2795 1.64062 18.273 1.48438C17.0341 3.28125 17.6536 1.79688 16.4147 3.90625C14.7113 3.90625 13.4725 2.1875 11.7691 3.51562C11.4594 3.28125 11.2271 3.125 10.9174 2.96875L10.6077 1.17188C9.29144 1.40625 10.4528 1.48438 9.29144 2.1875C8.43974 2.65625 8.74945 2.26562 8.28488 3.20312C7.66547 2.89062 8.20746 3.20312 7.66547 2.8125C7.43319 2.65625 7.51061 2.65625 7.27833 2.5C6.11693 3.75 4.87809 4.76562 3.63926 5.9375C2.86499 6.64062 0.309899 8.51562 0.464753 9.53125C1.1616 10 1.70359 9.84375 2.40043 10.0781C3.1747 10.3906 2.323 10.625 3.63926 11.0938C3.25213 11.4062 3.09727 11.3281 2.55528 11.5625C2.09072 11.7188 1.85844 11.875 1.54873 12.1875C1.85844 13.2812 2.01329 12.8906 2.63271 13.6719ZM104.372 60.0781C111.34 50.7812 97.1711 69.5312 104.372 60.0781V60.0781ZM53.9668 33.3594L53.812 33.0469C53.812 32.9688 53.7346 32.9688 53.7346 32.8906C55.2831 32.1875 54.0443 30 54.1217 28.5937C55.438 28.6719 55.5928 29.2188 56.1348 29.6094C57.7608 30.8594 56.4445 30.7031 57.4511 31.1719C57.9156 31.4063 58.1479 31.1719 58.9222 31.0938C59.2319 31.7969 59.077 31.4844 59.6964 31.7969L60.6256 30.9375C60.6256 30.9375 60.9353 30.5469 60.9353 30.4688C61.245 30.1562 60.9353 30.3125 61.3224 30.1562C61.7095 30.7812 61.4773 30.1562 61.0901 31.6406C60.4707 34.1406 59.3867 32.6562 58.2253 34.5312C57.6059 35.4688 57.8382 35.3906 57.3736 35.7031C55.9025 36.5625 57.4511 35.1562 55.8251 37.1094C55.0508 38.125 54.8185 38.2031 54.0443 38.2812C53.812 36.0156 54.6637 35.3906 54.0443 33.5156C54.0443 33.5156 53.9668 33.4375 53.9668 33.3594Z" stroke="#C5A7E5" stroke-width="4" mask="url(#path-2-inside-1)"/>
<path d="M30.0782 47.9404C30.1063 47.9712 30.1344 48.0015 30.1627 48.0312C30.0012 48.14 29.8493 48.2623 29.7065 48.398L29.6896 48.3902C29.4022 48.2563 29.2405 48.1386 29.0301 47.9854C28.9447 47.9232 28.8512 47.8551 28.7381 47.7778C28.3258 47.4959 27.8491 47.26 27.094 47.2055L26.6354 47.1725L26.3118 47.499C26.2004 47.6114 26.0892 47.7242 25.9831 47.8421C25.914 47.3688 25.7956 46.8981 25.6466 46.4571C25.4415 45.8499 25.1592 45.2428 24.8144 44.7143C26.5676 45.665 27.6116 45.9998 28.5029 45.9998C28.8306 45.9998 29.1231 45.9522 29.3613 45.9049C29.3577 45.9436 29.3548 45.9826 29.3528 46.0219C29.3182 46.684 29.5266 47.2746 30.045 47.9022L30.0611 47.9217L30.0782 47.9404Z" stroke="#C5A7E5" stroke-width="2"/>
<path fill-rule="evenodd" clip-rule="evenodd" d="M53.812 32.8906C53.812 32.9687 53.8894 32.9688 53.8894 33.0469L54.0443 33.3594C54.0443 33.4375 54.0443 33.4375 54.1217 33.5156C54.7411 35.3906 53.8894 36.0156 54.1217 38.2812C54.9734 38.2812 55.1283 38.125 55.9025 37.1094C57.5285 35.0781 55.98 36.5625 57.4511 35.7031C57.9156 35.3906 57.7608 35.4688 58.3028 34.5313C59.4642 32.6563 60.5482 34.2188 61.1676 31.6406C61.5547 30.1563 61.787 30.7812 61.3999 30.1562C60.9353 30.3125 61.245 30.1563 61.0127 30.4688C61.0127 30.4688 60.703 30.8594 60.703 30.9375L59.619 31.7969C58.9996 31.4844 59.2319 31.7969 58.8448 31.0938C58.0705 31.0938 57.9156 31.3281 57.3737 31.1719C56.3671 30.7031 57.6834 30.9375 56.0574 29.6094C55.5154 29.2188 55.3606 28.6719 54.0443 28.5938C54.1217 30 55.2831 32.1875 53.812 32.8906Z" fill="#CDE5F7"/>
<path d="M66.8637 46.7549C68.2222 46.7549 69.3235 45.7056 69.3235 44.4111C69.3235 43.1167 68.2222 42.0674 66.8637 42.0674C65.5051 42.0674 64.4038 43.1167 64.4038 44.4111C64.4038 45.7056 65.5051 46.7549 66.8637 46.7549Z" stroke="#E855D4" stroke-width="2" stroke-linecap="round" stroke-linejoin="round"/>
<path d="M88.3314 46.7549C89.69 46.7549 90.7913 45.7056 90.7913 44.4111C90.7913 43.1167 89.69 42.0674 88.3314 42.0674C86.9729 42.0674 85.8716 43.1167 85.8716 44.4111C85.8716 45.7056 86.9729 46.7549 88.3314 46.7549Z" stroke="#E855D4" stroke-width="2" stroke-linecap="round" stroke-linejoin="round"/>
<path d="M80.4599 77.6875C81.8184 77.6875 82.9197 76.6382 82.9197 75.3438C82.9197 74.0493 81.8184 73 80.4599 73C79.1013 73 78 74.0493 78 75.3438C78 76.6382 79.1013 77.6875 80.4599 77.6875Z" stroke="#E855D4" stroke-width="2" stroke-linecap="round" stroke-linejoin="round"/>
<path d="M98.4599 57.6875C99.8184 57.6875 100.92 56.6382 100.92 55.3438C100.92 54.0493 99.8184 53 98.4599 53C97.1013 53 96 54.0493 96 55.3438C96 56.6382 97.1013 57.6875 98.4599 57.6875Z" stroke="#E855D4" stroke-width="2" stroke-linecap="round" stroke-linejoin="round"/>
<path d="M93.4599 79.6875C94.8184 79.6875 95.9197 78.6382 95.9197 77.3438C95.9197 76.0493 94.8184 75 93.4599 75C92.1013 75 91 76.0493 91 77.3438C91 78.6382 92.1013 79.6875 93.4599 79.6875Z" stroke="#E855D4" stroke-width="2" stroke-linecap="round" stroke-linejoin="round"/>
<path d="M98.4599 84.6875C99.8184 84.6875 100.92 83.6382 100.92 82.3438C100.92 81.0493 99.8184 80 98.4599 80C97.1013 80 96 81.0493 96 82.3438C96 83.6382 97.1013 84.6875 98.4599 84.6875Z" stroke="#E855D4" stroke-width="2" stroke-linecap="round" stroke-linejoin="round"/>
<path d="M88.4599 89.6875C89.8184 89.6875 90.9197 88.6382 90.9197 87.3438C90.9197 86.0493 89.8184 85 88.4599 85C87.1013 85 86 86.0493 86 87.3438C86 88.6382 87.1013 89.6875 88.4599 89.6875Z" stroke="#E855D4" stroke-width="2" stroke-linecap="round" stroke-linejoin="round"/>
<path d="M98.4599 92.6875C99.8184 92.6875 100.92 91.6382 100.92 90.3438C100.92 89.0493 99.8184 88 98.4599 88C97.1013 88 96 89.0493 96 90.3438C96 91.6382 97.1013 92.6875 98.4599 92.6875Z" stroke="#E855D4" stroke-width="2" stroke-linecap="round" stroke-linejoin="round"/>
<path d="M91.4599 84.6875C92.8184 84.6875 93.9197 83.6382 93.9197 82.3438C93.9197 81.0493 92.8184 80 91.4599 80C90.1013 80 89 81.0493 89 82.3438C89 83.6382 90.1013 84.6875 91.4599 84.6875Z" stroke="#E855D4" stroke-width="2" stroke-linecap="round" stroke-linejoin="round"/>
<path d="M94.4599 89.6875C95.8184 89.6875 96.9197 88.6382 96.9197 87.3438C96.9197 86.0493 95.8184 85 94.4599 85C93.1013 85 92 86.0493 92 87.3438C92 88.6382 93.1013 89.6875 94.4599 89.6875Z" stroke="#E855D4" stroke-width="2" stroke-linecap="round" stroke-linejoin="round"/>
</g>
<defs>
<clipPath id="clip0">
<rect width="130" height="125" fill="white"/>
</clipPath>
</defs>
</svg>
