<svg width="13" height="15" viewBox="0 0 13 15" fill="none" xmlns="http://www.w3.org/2000/svg">
<path d="M6.5 8.15C7.63909 8.15 8.5625 7.27696 8.5625 6.2C8.5625 5.12304 7.63909 4.25 6.5 4.25C5.36091 4.25 4.4375 5.12304 4.4375 6.2C4.4375 7.27696 5.36091 8.15 6.5 8.15Z" stroke="#E855D4" stroke-width="2" stroke-linecap="round" stroke-linejoin="round"/>
<path d="M6.5 1C5.04131 1 3.64236 1.54786 2.61091 2.52304C1.57946 3.49823 1 4.82087 1 6.2C1 7.4298 1.27637 8.2345 2.03125 9.125L6.5 14L10.9688 9.125C11.7236 8.2345 12 7.4298 12 6.2C12 4.82087 11.4205 3.49823 10.3891 2.52304C9.35764 1.54786 7.95869 1 6.5 1V1Z" stroke="#E855D4" stroke-width="2" stroke-linecap="round" stroke-linejoin="round"/>
</svg>
