<svg width="39" height="35" viewBox="0 0 39 35" fill="none" xmlns="http://www.w3.org/2000/svg">
<path d="M33.15 0H5.85C2.62063 0.00343081 0.00349121 2.57529 0 5.74878V22.3564C0.00349121 25.5299 2.62063 28.1017 5.85 28.1052H7.65686L6.51301 33.7261C6.46382 33.9678 6.56062 34.2154 6.76121 34.3629C6.96179 34.5105 7.23093 34.5314 7.45278 34.4166L19.6606 28.1052H33.15C36.3794 28.1017 38.9965 25.5299 39 22.3564V5.74878C38.9965 2.57529 36.3794 0.00343081 33.15 0ZM37.7 22.3564C37.6971 24.8247 35.6618 26.8248 33.15 26.8276H19.5C19.3943 26.8276 19.2905 26.8529 19.1972 26.9013L8.05549 32.6641L9.08699 27.5943C9.12603 27.4062 9.07715 27.211 8.95369 27.0625C8.83022 26.9137 8.64519 26.8276 8.45 26.8276H5.85C3.33823 26.8248 1.30286 24.8247 1.3 22.3564V5.74878C1.30286 3.28047 3.33823 1.28031 5.85 1.27751H33.15C35.6618 1.28031 37.6971 3.28047 37.7 5.74878V22.3564Z" fill="#C4C1C8"/>
</svg>
