<svg width="51" height="20" viewBox="0 0 51 20" fill="none" xmlns="http://www.w3.org/2000/svg">
<path d="M13.3668 12.6173C14.011 12.088 14.5353 11.4435 14.9234 10.6991C15.3946 9.79518 15.6359 8.75635 15.6359 7.59418C15.6359 6.34155 15.2926 5.1563 14.6073 4.09478C13.9272 3.019 13.0258 2.18047 11.8656 1.56146C10.7053 0.942446 9.44806 0.633789 8.10189 0.633789H3.23913C2.49786 0.633789 1.82881 0.907717 1.30504 1.42361L1.30493 1.42349L1.29603 1.43272C0.788082 1.95935 0.5 2.59237 0.5 3.31696V16.661C0.5 17.4033 0.784314 18.0325 1.26418 18.5577L1.27305 18.5674L1.28243 18.5766C1.8062 19.0925 2.47524 19.3665 3.21651 19.3665C3.97772 19.3665 4.64757 19.0944 5.17322 18.5766L5.17333 18.5768L5.18224 18.5675C5.69223 18.0388 5.97826 17.4052 5.97826 16.661V14.4432H7.42336L7.46456 14.4432C7.64945 14.4432 7.82629 14.4432 7.98343 14.4401L10.8832 18.354C11.3894 19.0958 12.1352 19.4556 13.0099 19.4556C13.6892 19.4556 14.3337 19.2389 14.9326 18.8029L14.9415 18.7964L14.9501 18.7896C15.5455 18.3148 15.8395 17.6801 15.8395 16.9506C15.8395 16.2553 15.5574 15.5739 15.0853 14.9375L15.0854 14.9377L14.6836 15.2353L15.0851 14.9374L13.3668 12.6173ZM29.386 13.6411L29.3923 13.6344L29.3984 13.6274C29.8121 13.1574 29.9754 12.4509 29.9754 11.6041C29.9754 10.4962 29.7058 9.45302 29.1643 8.5065C28.6192 7.53143 27.8284 6.75642 26.8301 6.18083C25.8167 5.59651 24.6651 5.31201 23.3461 5.31201C21.9584 5.31201 20.7158 5.61912 19.6341 6.24868C18.5632 6.87194 17.7282 7.71686 17.1401 8.80204C16.5521 9.86467 16.2644 11.0853 16.2644 12.3838C16.2644 13.6858 16.5536 14.8824 17.1389 15.9635C17.7241 17.0442 18.5559 17.9122 19.6056 18.5377C20.6886 19.192 21.911 19.5001 23.2782 19.5001C24.3388 19.5001 25.2749 19.3609 26.0804 19.0965L26.0805 19.0966L26.0931 19.0921C26.8477 18.8218 27.4659 18.5367 27.9106 18.2048C28.5978 17.7399 28.9576 17.0794 28.9576 16.3046C28.9576 15.9144 28.8712 15.5627 28.6915 15.2381L28.6915 15.2381L28.6887 15.2332C28.435 14.787 28.0892 14.4775 27.6723 14.3084C28.3753 14.2912 28.9657 14.0846 29.386 13.6411ZM22.2426 14.3095H25.9181C25.8209 14.3401 25.7225 14.3753 25.6235 14.4155L25.6164 14.4184L25.6094 14.4214C25.0045 14.6885 24.4174 14.8244 23.8663 14.8244C23.3687 14.8244 22.9367 14.7271 22.5509 14.5099L22.551 14.5099L22.5423 14.5052C22.4327 14.4464 22.3332 14.3813 22.2426 14.3095ZM24.5574 10.4193L24.5644 10.4247L24.5716 10.4298C24.7057 10.5252 24.8102 10.6433 24.8852 10.7922H21.8986C22.0112 10.6388 22.142 10.5152 22.2911 10.4148C22.6251 10.1897 23.0214 10.0769 23.5044 10.0769C23.9044 10.0769 24.2468 10.1814 24.5574 10.4193ZM44.1652 10.6905L44.1736 10.6989L44.1825 10.7068C44.2912 10.8041 44.3779 10.98 44.3779 11.2922V16.6833C44.3779 17.4084 44.667 18.0507 45.2148 18.5632C45.7574 19.071 46.4215 19.3442 47.1849 19.3442C47.9117 19.3442 48.5559 19.0644 49.0737 18.5544C49.5916 18.0443 49.8788 17.4063 49.8788 16.6833V11.4259V11.4151L49.8783 11.4043C49.8297 10.2798 49.5365 9.26013 48.9679 8.33488C48.4063 7.42093 47.6464 6.67067 46.713 6.1375C45.7692 5.57591 44.7079 5.31201 43.5887 5.31201C42.1871 5.31201 40.9824 5.77477 39.9997 6.69272C39.0432 5.7706 37.8308 5.31201 36.3964 5.31201C35.298 5.31201 34.2363 5.57673 33.2929 6.13857C32.3353 6.69534 31.5995 7.4463 31.0398 8.35716C30.4676 9.28823 30.1968 10.3157 30.1968 11.4259V16.6833C30.1968 17.4084 30.4859 18.0507 31.0337 18.5632L31.0336 18.5633L31.0426 18.5714C31.6021 19.07 32.2612 19.3442 33.0264 19.3442C33.7786 19.3442 34.3995 19.0623 34.9152 18.5544C35.4429 18.0346 35.6976 17.3928 35.6976 16.6833V11.2922C35.6976 11.0228 35.7822 10.834 35.9187 10.6824C36.0531 10.554 36.2317 10.4778 36.5321 10.4778C36.7903 10.4778 36.9597 10.5546 37.0693 10.6734L37.0855 10.6909L37.1032 10.7068C37.2119 10.8041 37.2986 10.98 37.2986 11.2922V16.6833C37.2986 17.4084 37.5878 18.0507 38.1355 18.5632C38.6762 19.0692 39.3397 19.3442 40.083 19.3442C40.8297 19.3442 41.4746 19.0664 41.9945 18.5544C42.5123 18.0443 42.7995 17.4063 42.7995 16.6833V11.2922C42.7995 11.0175 42.8875 10.8265 43.0288 10.6734C43.1412 10.5516 43.2902 10.4778 43.5661 10.4778C43.8457 10.4778 44.0272 10.5546 44.1652 10.6905ZM9.59228 8.8776C9.24234 9.20505 8.78068 9.38874 8.19236 9.38874H6.00088V5.7328H8.16974C8.78306 5.7328 9.2439 5.91795 9.59228 6.24393C9.92804 6.5581 10.1124 6.99683 10.1124 7.57191C10.1124 8.1417 9.93145 8.56025 9.59228 8.8776Z" stroke="#C4C4C4"/>
</svg>
