<svg width="57" height="20" viewBox="0 0 57 20" fill="none" xmlns="http://www.w3.org/2000/svg">
<path d="M3.59151 5.75495H6.09964V16.6832C6.09964 17.4257 6.38471 18.0644 6.90468 18.5765L6.90457 18.5766L6.91392 18.5854C7.46028 19.0966 8.10312 19.3441 8.83877 19.3441C9.59441 19.3441 10.238 19.0984 10.7862 18.5854C11.3362 18.0708 11.6231 17.4276 11.6231 16.6832V5.75495H14.1313C14.8629 5.75495 15.4991 5.5105 16.0409 5.03226C16.59 4.57026 16.893 3.96916 16.893 3.29455C16.893 2.57153 16.6058 1.93354 16.088 1.42348L15.741 1.77574L16.088 1.42348C15.6849 1.02646 15.1957 0.772743 14.6539 0.676901V0.611386H14.1539H3.61413C2.84754 0.611386 2.20188 0.887219 1.68004 1.4012L1.67993 1.40109L1.67102 1.41032C1.16103 1.93908 0.875 2.57263 0.875 3.31683C0.875 3.97953 1.18657 4.54947 1.68979 5.01903L1.68968 5.01915L1.69923 5.02762C2.24023 5.5072 2.87753 5.75495 3.59151 5.75495ZM26.4881 15.238L26.4881 15.238L26.4853 15.2331C26.2313 14.7863 25.885 14.4767 25.4675 14.3077C26.1611 14.2869 26.7439 14.08 27.16 13.6409C27.427 13.3592 27.6025 12.9818 27.6999 12.5437C27.7154 13.8444 28.0565 15.0208 28.7265 16.0814C29.4062 17.1572 30.3084 17.9981 31.4504 18.5964C32.5869 19.1918 33.843 19.5 35.1881 19.5C36.1215 19.5 37.0173 19.3584 37.8705 19.0463C38.7165 18.7368 39.4561 18.3026 40.0778 17.7148C40.7035 17.1241 41.0485 16.4191 41.0485 15.6139C41.0485 14.9639 40.8502 14.4267 40.4571 13.9565L40.4572 13.9564L40.4507 13.949C39.9588 13.3838 39.351 13.0866 38.6486 13.0866C37.9481 13.0866 37.2406 13.3631 36.4938 13.8613L36.4809 13.8699L36.4685 13.8794C36.0573 14.1923 35.6207 14.3342 35.1429 14.3342C34.5426 14.3342 34.0994 14.1367 33.7773 13.7694C33.421 13.363 33.2454 12.9211 33.2454 12.4059C33.2454 11.8942 33.4183 11.458 33.7874 11.0563C34.1396 10.6942 34.594 10.5 35.1655 10.5C35.6389 10.5 36.0537 10.6391 36.4685 10.9548L36.4779 10.9619L36.4875 10.9686C37.2204 11.4739 37.9514 11.7475 38.6486 11.7475C39.3679 11.7475 39.9823 11.4545 40.4584 10.876C40.8524 10.4041 41.0485 9.84438 41.0485 9.2203C41.0485 8.41489 40.7033 7.70986 40.0774 7.11907L40.0775 7.11901L40.0706 7.11272C39.4306 6.53089 38.6949 6.09777 37.8478 5.78786C37.0027 5.47869 36.1078 5.31188 35.1655 5.31188C33.8422 5.31188 32.5863 5.62041 31.4504 6.21552C30.3077 6.81416 29.4042 7.65614 28.7239 8.75695C28.2403 9.53955 27.9285 10.3823 27.7872 11.2888C27.7403 10.2991 27.4699 9.3797 26.9599 8.50455C26.4148 7.53034 25.6244 6.75593 24.6267 6.1807C23.6126 5.59599 22.4382 5.31188 21.1427 5.31188C19.755 5.31188 18.5124 5.619 17.4307 6.24856C16.3591 6.87221 15.5237 7.71781 14.9355 8.804C14.3502 9.88501 14.061 11.0817 14.061 12.3837C14.061 13.6857 14.3502 14.8823 14.9355 15.9633C15.521 17.0446 16.3533 17.9129 17.4037 18.5385C18.4601 19.1676 19.7034 19.5 21.0748 19.5C22.1551 19.5 23.0927 19.3616 23.8791 19.0957C24.6361 18.847 25.2619 18.5611 25.7146 18.1997C26.3969 17.735 26.7542 17.0765 26.7542 16.3045C26.7542 15.9143 26.6678 15.5626 26.4881 15.238ZM20.049 14.3094H23.7147C23.6175 14.3399 23.5191 14.3752 23.4201 14.4154L23.413 14.4182L23.406 14.4213C22.8011 14.6884 22.214 14.8243 21.6629 14.8243C21.1827 14.8243 20.7435 14.7122 20.3397 14.5054C20.2353 14.4461 20.1384 14.3808 20.049 14.3094ZM52.0904 6.22883L52.0905 6.22877L52.0831 6.22452C51.0332 5.6233 49.8616 5.31188 48.6003 5.31188C48.062 5.31188 47.5319 5.39039 47.0195 5.55588V3.20545C47.0195 2.46846 46.7385 1.80595 46.2144 1.28982L46.2146 1.2897L46.2052 1.28094C45.6706 0.780748 45.0315 0.5 44.303 0.5C43.5345 0.5 42.8942 0.776885 42.3555 1.28094L42.6962 1.64506L42.3555 1.28095C41.8013 1.79949 41.5186 2.46667 41.5186 3.20545V16.6386C41.5186 17.3811 41.8037 18.0198 42.3236 18.532C42.8493 19.0497 43.5191 19.3218 44.2804 19.3218C45.0469 19.3218 45.6926 19.0459 46.2144 18.532L46.2146 18.5321L46.2235 18.5229C46.7314 17.9962 47.0195 17.3632 47.0195 16.6386V11.8267C47.0195 11.4101 47.1637 11.106 47.4303 10.872C47.7418 10.6184 48.1238 10.4777 48.6003 10.4777C49.0871 10.4777 49.4011 10.6219 49.5964 10.8554L49.6018 10.8619L49.6075 10.8683C49.8376 11.1251 49.9775 11.5013 49.9775 12.1163V16.6832C49.9775 17.4257 50.2626 18.0644 50.7826 18.5765C51.3154 19.1013 51.9888 19.3441 52.7167 19.3441C53.4723 19.3441 54.1159 19.0984 54.6641 18.5854C55.2141 18.0708 55.501 17.4276 55.501 16.6832V12.25C55.501 10.983 55.1847 9.80509 54.5747 8.74768C53.9665 7.69337 53.1364 6.85179 52.0904 6.22883ZM22.3776 10.3981C22.5059 10.5044 22.6092 10.6271 22.6858 10.7698H19.7099C19.8232 10.6194 19.9579 10.495 20.1103 10.3924C20.4443 10.1673 20.8406 10.0545 21.3236 10.0545C21.7041 10.0545 22.0521 10.17 22.3776 10.3981Z" stroke="#C4C4C4"/>
</svg>
